<?xml version="1.0" encoding="UTF-8"?>
<svg id="Layer_1" data-name="Layer 1" xmlns="http://www.w3.org/2000/svg" viewBox="0 0 71.92 18.78">
  <rect x="36.38" y=".34" width="1.71" height="2.77" fill="#ce221c"/>
  <path d="M27.33,6.09c2.02,0,3.62.78,4.79,2.33l1.36-.84c-.4-.67-.88-1.22-1.45-1.65-.57-.43-1.26-.78-2.08-1.05-.82-.27-1.67-.4-2.55-.4-1.4,0-2.66.31-3.8.93-1.13.62-2.02,1.48-2.67,2.58-.65,1.1-.97,2.3-.97,3.58,0,1.91.69,3.54,2.08,4.87,1.38,1.34,3.12,2,5.22,2,1.37,0,2.59-.26,3.66-.79,1.07-.53,1.92-1.27,2.56-2.22l-1.36-.89c-1.23,1.55-2.83,2.33-4.78,2.33-1.06,0-2.03-.24-2.88-.71-.86-.47-1.53-1.13-2.02-1.99-.49-.85-.74-1.76-.74-2.73,0-1.49.53-2.75,1.6-3.79,1.07-1.04,2.41-1.56,4.03-1.56Z" fill="#ce221c"/>
  <rect x="36.38" y="4.82" width="1.71" height="13.28" fill="#ce221c"/>
  <rect x=".33" y=".34" width="1.71" height="2.77" fill="#666766"/>
  <rect x=".33" y="4.82" width="1.71" height="13.28" fill="#666766"/>
  <path d="M15.15,8.7c.13.51.19,1.53.19,3.06v6.34h1.71v-6.84c0-1.81-.18-3.14-.55-3.99s-.93-1.53-1.7-2.04c-.77-.5-1.65-.76-2.64-.76s-1.88.23-2.71.68c-.83.45-1.59,1.13-2.27,2.05v-2.38h-1.71v13.28h1.71v-4.87c0-1.75.08-2.95.24-3.61.26-1.01.8-1.85,1.62-2.54.82-.68,1.74-1.03,2.78-1.03.9,0,1.64.22,2.2.66.56.44.94,1.11,1.14,1.98Z" fill="#666766"/>
  <path d="M53.09,7.26c-.67-.93-1.44-1.62-2.33-2.09-.88-.46-1.87-.7-2.96-.7-1.89,0-3.5.68-4.85,2.04-1.34,1.36-2.01,2.99-2.01,4.91s.67,3.61,2,4.97c1.33,1.36,2.94,2.04,4.81,2.04,1.06,0,2.03-.22,2.92-.66.89-.44,1.7-1.1,2.41-1.97v2.28h1.68V.34h-1.68v6.92ZM52.52,14.24c-.45.8-1.09,1.44-1.93,1.91-.84.47-1.72.71-2.66.71s-1.79-.24-2.6-.71c-.81-.48-1.45-1.14-1.93-1.99-.48-.85-.72-1.75-.72-2.68s.24-1.84.71-2.68c.47-.84,1.12-1.5,1.92-1.97s1.68-.7,2.63-.7c1.48,0,2.72.52,3.74,1.55,1.01,1.03,1.52,2.32,1.52,3.85,0,1.01-.23,1.92-.68,2.72Z" fill="#666766"/>
  <path d="M64.79,18.44c.98,0,1.85-.15,2.63-.45.77-.3,1.47-.73,2.09-1.3.62-.57,1.16-1.32,1.64-2.25l-1.44-.76c-.52.87-1.01,1.5-1.45,1.88-.45.39-.99.7-1.63.94-.64.24-1.3.35-1.97.35-1.4,0-2.58-.49-3.53-1.48-.95-.99-1.45-2.25-1.48-3.79h11.95c-.02-1.81-.51-3.33-1.47-4.54-1.35-1.72-3.16-2.58-5.42-2.58s-3.95.84-5.27,2.52c-1.04,1.32-1.55,2.82-1.55,4.5,0,1.79.61,3.39,1.83,4.81,1.22,1.42,2.91,2.13,5.08,2.13ZM61.35,7.37c.94-.84,2.06-1.26,3.36-1.26.79,0,1.54.17,2.26.5s1.29.77,1.73,1.32c.44.54.77,1.27,1,2.19h-9.9c.35-1.22.87-2.14,1.55-2.75Z" fill="#666766"/>
</svg>