<?xml version="1.0" encoding="UTF-8"?>
<svg id="Layer_1" data-name="Layer 1" xmlns="http://www.w3.org/2000/svg" viewBox="0 0 71.92 33.36">
  <g>
    <rect x="36.54" y=".31" width="1.71" height="2.77" fill="#ce221c"/>
    <path d="M27.49,6.05c2.02,0,3.62.78,4.79,2.33l1.36-.84c-.4-.67-.88-1.22-1.45-1.65-.57-.43-1.26-.78-2.08-1.05-.82-.27-1.67-.4-2.55-.4-1.4,0-2.66.31-3.8.93-1.13.62-2.02,1.48-2.67,2.58-.65,1.1-.97,2.3-.97,3.58,0,1.91.69,3.54,2.08,4.87,1.38,1.34,3.12,2,5.22,2,1.37,0,2.59-.26,3.66-.79,1.07-.53,1.92-1.27,2.56-2.22l-1.36-.89c-1.23,1.55-2.83,2.33-4.78,2.33-1.06,0-2.03-.24-2.88-.71-.86-.47-1.53-1.13-2.02-1.99-.49-.85-.74-1.76-.74-2.73,0-1.49.53-2.75,1.6-3.79,1.07-1.04,2.41-1.56,4.03-1.56Z" fill="#ce221c"/>
    <rect x="36.54" y="4.78" width="1.71" height="13.28" fill="#ce221c"/>
  </g>
  <rect x=".48" y=".31" width="1.71" height="2.77" fill="#666766"/>
  <rect x=".48" y="4.78" width="1.71" height="13.28" fill="#666766"/>
  <path d="M15.31,8.66c.13.51.19,1.53.19,3.06v6.34h1.71v-6.84c0-1.81-.18-3.14-.55-3.99s-.93-1.53-1.7-2.04c-.77-.5-1.65-.76-2.64-.76s-1.88.23-2.71.68c-.83.45-1.59,1.13-2.27,2.05v-2.38h-1.71v13.28h1.71v-4.87c0-1.75.08-2.95.24-3.61.26-1.01.8-1.85,1.62-2.54.82-.68,1.74-1.03,2.78-1.03.9,0,1.64.22,2.2.66.56.44.94,1.11,1.14,1.98Z" fill="#666766"/>
  <path d="M53.24,7.22c-.67-.93-1.44-1.62-2.33-2.09-.88-.46-1.87-.7-2.96-.7-1.89,0-3.5.68-4.85,2.04-1.34,1.36-2.01,2.99-2.01,4.91s.67,3.61,2,4.97c1.33,1.36,2.94,2.04,4.81,2.04,1.06,0,2.03-.22,2.92-.66.89-.44,1.7-1.1,2.41-1.97v2.28h1.68V.31h-1.68v6.92ZM52.68,14.21c-.45.8-1.09,1.44-1.93,1.91-.84.47-1.72.71-2.66.71s-1.79-.24-2.6-.71c-.81-.48-1.45-1.14-1.93-1.99-.48-.85-.72-1.75-.72-2.68s.24-1.84.71-2.68c.47-.84,1.12-1.5,1.92-1.97s1.68-.7,2.63-.7c1.48,0,2.72.52,3.74,1.55,1.01,1.03,1.52,2.32,1.52,3.85,0,1.01-.23,1.92-.68,2.72Z" fill="#666766"/>
  <path d="M64.94,18.4c.98,0,1.85-.15,2.63-.45.77-.3,1.47-.73,2.09-1.3.62-.57,1.16-1.32,1.64-2.25l-1.44-.76c-.52.87-1.01,1.5-1.45,1.88-.45.39-.99.7-1.63.94-.64.24-1.3.35-1.97.35-1.4,0-2.58-.49-3.53-1.48-.95-.99-1.45-2.25-1.48-3.79h11.95c-.02-1.81-.51-3.33-1.47-4.54-1.35-1.72-3.16-2.58-5.42-2.58s-3.95.84-5.27,2.52c-1.04,1.32-1.55,2.82-1.55,4.5,0,1.79.61,3.39,1.83,4.81,1.22,1.42,2.91,2.13,5.08,2.13ZM61.51,7.33c.94-.84,2.06-1.26,3.36-1.26.79,0,1.54.17,2.26.5s1.29.77,1.73,1.32c.44.54.77,1.27,1,2.19h-9.9c.35-1.22.87-2.14,1.55-2.75Z" fill="#666766"/>
  <g>
    <rect x="24.41" y="21.81" width=".84" height="1.36" fill="#cdcccc"/>
    <rect x="54.55" y="21.81" width=".84" height="1.36" fill="#cdcccc"/>
    <path d="M6.18,25.1c-.66-.84-1.55-1.26-2.66-1.26s-1.94.41-2.58,1.23c-.51.65-.76,1.38-.76,2.21,0,.88.3,1.66.9,2.36.6.7,1.43,1.04,2.49,1.04.48,0,.91-.07,1.29-.22.38-.15.72-.36,1.02-.64.3-.28.57-.65.8-1.1l-.71-.37c-.26.42-.49.73-.71.92-.22.19-.49.34-.8.46-.31.12-.63.17-.97.17-.69,0-1.26-.24-1.73-.73-.47-.48-.71-1.1-.72-1.86h5.86c0-.89-.25-1.63-.72-2.23ZM1.12,26.6c.17-.6.43-1.05.76-1.35.46-.41,1.01-.62,1.65-.62.39,0,.76.08,1.11.25.35.16.63.38.85.65.21.27.38.62.49,1.07H1.12Z" fill="#cdcccc"/>
    <path d="M13.15,24.21c-.38-.25-.81-.37-1.29-.37s-.92.11-1.33.33c-.41.22-.78.56-1.11,1v-1.17h-.84v6.51h.84v-2.39c0-.86.04-1.45.12-1.77.13-.49.39-.91.79-1.24.4-.33.85-.5,1.36-.5.44,0,.8.11,1.08.33.27.22.46.54.56.97.06.25.09.75.09,1.5v3.1h.84v-3.35c0-.89-.09-1.54-.27-1.96-.18-.42-.46-.75-.83-1Z" fill="#cdcccc"/>
    <path d="M21.78,25.13c-.39-.46-.8-.79-1.22-1-.42-.2-.87-.3-1.36-.3-.59,0-1.14.15-1.67.45-.53.3-.94.71-1.24,1.24-.3.52-.45,1.08-.45,1.68s.14,1.15.43,1.66c.29.5.7.9,1.22,1.2.53.3,1.09.45,1.69.45.51,0,.99-.11,1.45-.32.45-.21.84-.52,1.16-.92v.34c0,.72-.08,1.24-.25,1.56-.17.32-.45.59-.84.8-.39.21-.87.32-1.45.32s-1.06-.1-1.45-.31c-.39-.21-.71-.53-.96-.96h-.91c.24.51.49.9.77,1.17.28.27.64.48,1.09.64.44.16.95.24,1.5.24.76,0,1.41-.16,1.96-.48.54-.32.92-.78,1.14-1.38.16-.42.24-1.09.24-2v-5.19h-.84v1.13ZM21.12,29.03c-.47.46-1.09.69-1.86.69s-1.38-.23-1.86-.7c-.48-.47-.72-1.06-.72-1.77,0-.47.12-.91.35-1.31.23-.41.55-.72.96-.95.41-.23.85-.34,1.32-.34s.88.11,1.27.33c.39.22.7.53.92.91.21.38.32.82.32,1.31,0,.75-.23,1.36-.7,1.82Z" fill="#cdcccc"/>
    <rect x="24.41" y="24" width=".84" height="6.51" fill="#cdcccc"/>
    <path d="M31.69,24.21c-.38-.25-.81-.37-1.29-.37s-.92.11-1.33.33c-.41.22-.78.56-1.11,1v-1.17h-.84v6.51h.84v-2.39c0-.86.04-1.45.12-1.77.13-.49.39-.91.79-1.24.4-.33.85-.5,1.36-.5.44,0,.8.11,1.08.33.27.22.46.54.56.97.06.25.09.75.09,1.5v3.1h.84v-3.35c0-.89-.09-1.54-.27-1.96-.18-.42-.46-.75-.83-1Z" fill="#cdcccc"/>
    <path d="M40.39,25.1c-.66-.84-1.55-1.26-2.66-1.26s-1.94.41-2.58,1.23c-.51.65-.76,1.38-.76,2.21,0,.88.3,1.66.9,2.36.6.7,1.43,1.04,2.49,1.04.48,0,.91-.07,1.29-.22.38-.15.72-.36,1.02-.64.3-.28.57-.65.8-1.1l-.71-.37c-.26.42-.49.73-.71.92-.22.19-.49.34-.8.46-.31.12-.64.17-.97.17-.69,0-1.26-.24-1.73-.73-.47-.48-.71-1.1-.72-1.86h5.85c0-.89-.25-1.63-.72-2.23ZM35.33,26.6c.17-.6.42-1.05.76-1.35.46-.41,1.01-.62,1.65-.62.39,0,.76.08,1.11.25.35.16.63.38.85.65.21.27.38.62.49,1.07h-4.85Z" fill="#cdcccc"/>
    <path d="M48.47,25.1c-.66-.84-1.55-1.26-2.66-1.26s-1.94.41-2.58,1.23c-.51.65-.76,1.38-.76,2.21,0,.88.3,1.66.9,2.36.6.7,1.43,1.04,2.49,1.04.48,0,.91-.07,1.29-.22.38-.15.72-.36,1.02-.64.3-.28.57-.65.8-1.1l-.71-.37c-.26.42-.49.73-.71.92-.22.19-.49.34-.8.46-.31.12-.64.17-.97.17-.69,0-1.26-.24-1.73-.73-.47-.48-.71-1.1-.72-1.86h5.86c0-.89-.25-1.63-.72-2.23ZM43.42,26.6c.17-.6.43-1.05.76-1.35.46-.41,1.01-.62,1.65-.62.39,0,.76.08,1.11.25.35.16.63.38.85.65.21.27.38.62.49,1.07h-4.85Z" fill="#cdcccc"/>
    <path d="M52.22,24.11c-.28.19-.55.47-.81.84v-.95h-.86v6.51h.86v-2.2c0-1.13.05-1.88.16-2.25.14-.48.33-.84.59-1.07.26-.23.53-.34.81-.34.12,0,.27.04.44.11l.44-.7c-.26-.15-.51-.22-.74-.22-.31,0-.6.09-.89.28Z" fill="#cdcccc"/>
    <rect x="54.55" y="24" width=".84" height="6.51" fill="#cdcccc"/>
    <path d="M61.83,24.21c-.38-.25-.81-.37-1.29-.37s-.92.11-1.33.33c-.41.22-.78.56-1.11,1v-1.17h-.84v6.51h.84v-2.39c0-.86.04-1.45.12-1.77.13-.49.39-.91.79-1.24.4-.33.85-.5,1.36-.5.44,0,.8.11,1.08.33.28.22.46.54.56.97.06.25.09.75.09,1.5v3.1h.84v-3.35c0-.89-.09-1.54-.27-1.96-.18-.42-.46-.75-.83-1Z" fill="#cdcccc"/>
    <path d="M70.46,24v1.13c-.39-.46-.8-.79-1.22-1-.42-.2-.88-.3-1.36-.3-.59,0-1.14.15-1.67.45-.53.3-.94.71-1.24,1.24-.3.52-.45,1.08-.45,1.68s.14,1.15.43,1.66c.29.5.69.9,1.22,1.2.53.3,1.09.45,1.69.45.51,0,.99-.11,1.45-.32.46-.21.84-.52,1.16-.92v.34c0,.72-.08,1.24-.25,1.56-.17.32-.45.59-.84.8-.39.21-.88.32-1.45.32s-1.06-.1-1.45-.31c-.39-.21-.71-.53-.96-.96h-.91c.24.51.49.9.77,1.17.28.27.64.48,1.08.64.45.16.95.24,1.5.24.76,0,1.41-.16,1.96-.48.54-.32.92-.78,1.14-1.38.16-.42.24-1.09.24-2v-5.19h-.84ZM69.8,29.03c-.47.46-1.09.69-1.86.69s-1.38-.23-1.86-.7c-.48-.47-.72-1.06-.72-1.77,0-.47.12-.91.35-1.31.23-.41.55-.72.96-.95.41-.23.85-.34,1.32-.34s.88.11,1.27.33c.39.22.7.53.91.91.22.38.32.82.32,1.31,0,.75-.23,1.36-.7,1.82Z" fill="#cdcccc"/>
  </g>
</svg>