<?xml version="1.0" standalone="no"?>
<!DOCTYPE svg PUBLIC "-//W3C//DTD SVG 20010904//EN"
 "http://www.w3.org/TR/2001/REC-SVG-20010904/DTD/svg10.dtd">
<svg version="1.0" xmlns="http://www.w3.org/2000/svg"
 width="1600.000000pt" height="1000.000000pt" viewBox="0 0 1600.000000 1000.000000"
 preserveAspectRatio="xMidYMid meet">

<g transform="translate(0.000000,1000.000000) scale(0.100000,-0.100000)"
fill="#000000" stroke="none">
<path d="M2030 6825 l0 -905 190 0 190 0 0 170 c0 145 3 180 20 231 62 182
212 301 415 330 231 32 448 -104 516 -322 18 -57 19 -100 19 -680 l0 -619 193
0 192 0 -6 677 c-6 764 -3 732 -85 902 -133 274 -448 427 -786 382 -155 -21
-273 -72 -396 -170 -34 -28 -67 -51 -72 -51 -7 0 -10 168 -10 480 l0 480 -190
0 -190 0 0 -905z"/>
<path d="M8030 6825 l0 -905 193 0 192 0 0 905 0 905 -192 0 -193 0 0 -905z"/>
<path d="M870 6989 c-100 -12 -240 -52 -314 -92 -86 -45 -198 -158 -235 -236
-99 -210 -44 -492 123 -623 60 -48 160 -99 236 -122 30 -9 170 -37 310 -61
140 -24 278 -51 306 -59 107 -33 174 -110 174 -201 0 -57 -17 -91 -71 -139
-92 -84 -186 -106 -446 -106 l-173 0 0 -161 0 -161 248 5 c267 6 322 14 459
67 144 55 288 189 335 310 29 76 36 232 14 332 -38 171 -158 291 -359 359 -46
15 -191 46 -323 68 -280 48 -300 53 -378 94 -138 73 -163 208 -59 312 53 53
127 83 238 96 44 5 81 9 83 9 1 0 2 72 2 160 l0 160 -47 -1 c-27 -1 -82 -5
-123 -10z"/>
<path d="M4810 6840 l0 -159 35 -6 c19 -3 52 -8 73 -11 103 -15 213 -100 258
-198 26 -57 52 -201 41 -229 -6 -15 -35 -17 -320 -17 -339 0 -428 -9 -560 -55
-131 -45 -262 -146 -321 -247 -65 -112 -93 -293 -66 -430 42 -217 229 -386
485 -439 77 -16 138 -19 433 -19 l342 0 0 159 0 159 -342 4 c-333 3 -344 4
-393 26 -99 46 -146 115 -153 228 -4 65 -1 80 22 128 45 91 123 146 245 172
51 11 171 14 539 14 l472 0 0 193 c0 223 -11 329 -45 428 -85 251 -302 412
-605 449 -46 5 -97 10 -112 10 l-28 0 0 -160z"/>
<path d="M6800 6830 l0 -169 38 -6 c86 -12 168 -37 221 -67 86 -50 174 -145
221 -241 62 -127 75 -189 74 -357 0 -170 -14 -233 -77 -355 -191 -369 -672
-409 -917 -77 -60 81 -106 186 -122 281 l-12 71 -188 0 -188 0 0 -830 0 -830
190 0 190 0 0 505 c0 278 4 505 9 505 4 0 41 -33 82 -73 85 -83 179 -137 296
-169 65 -18 105 -21 238 -21 145 0 169 2 248 27 146 44 236 96 346 200 195
187 291 441 291 774 0 328 -100 587 -298 774 -155 146 -366 228 -588 228 l-54
0 0 -170z"/>
<path d="M9545 6990 c-135 -22 -260 -78 -373 -169 l-62 -51 -200 0 -200 0 0
-425 0 -425 190 0 190 0 0 170 c0 145 3 180 20 231 62 182 212 301 415 330
231 32 448 -104 516 -322 18 -57 19 -100 19 -680 l0 -619 193 0 192 0 -6 677
c-6 764 -3 732 -85 902 -86 176 -254 311 -451 362 -91 23 -270 32 -358 19z"/>
<path d="M11330 6988 c-92 -13 -204 -53 -284 -100 -88 -52 -214 -172 -272
-259 -206 -310 -202 -819 9 -1129 46 -67 134 -157 204 -206 138 -99 293 -145
486 -145 237 0 414 57 544 176 37 33 67 53 74 49 8 -5 10 -63 7 -208 -5 -173
-8 -210 -27 -266 -29 -84 -69 -145 -135 -208 -101 -96 -209 -132 -398 -132
l-118 0 0 -172 0 -173 182 6 c136 5 205 12 266 28 309 78 515 287 588 598 14
56 17 154 21 566 l5 497 -202 -2 -203 -3 -12 -41 c-50 -168 -200 -314 -370
-359 -75 -19 -214 -19 -288 0 -189 49 -332 197 -384 395 -20 80 -23 253 -4
330 21 88 77 194 135 257 89 96 200 149 349 168 l47 6 -2 167 -3 167 -75 1
c-41 1 -104 -2 -140 -8z"/>
<path d="M110 5190 l0 -160 190 0 190 0 0 160 0 160 -190 0 -190 0 0 -160z"/>
<path d="M8030 5190 l0 -160 193 0 192 0 0 160 0 160 -192 0 -193 0 0 -160z"/>
<path d="M1597 4590 c-141 -17 -286 -81 -399 -175 l-66 -55 -196 0 -196 0 0
-420 0 -420 189 0 189 0 4 188 3 188 37 75 c63 127 187 229 322 265 77 21 212
18 289 -6 74 -23 167 -87 215 -147 18 -23 47 -72 65 -110 l32 -68 3 -637 3
-638 192 0 192 0 -5 677 c-6 730 -4 695 -60 846 -28 75 -107 192 -165 246 -61
56 -155 116 -224 142 -118 44 -295 65 -424 49z"/>
<path d="M3570 4594 c-159 -18 -304 -77 -421 -172 l-77 -62 -196 0 -196 0 0
-420 0 -420 190 0 190 0 0 164 c0 233 28 314 147 427 65 62 128 98 217 124 81
24 239 17 316 -13 118 -47 228 -163 271 -289 l24 -68 0 -617 0 -618 193 0 192
0 0 588 c0 607 -6 725 -41 851 -68 249 -261 438 -509 500 -76 19 -236 32 -300
25z"/>
<path d="M5480 4593 c-215 -20 -369 -77 -519 -191 -265 -202 -397 -538 -361
-921 26 -277 114 -467 297 -642 175 -167 392 -249 658 -249 276 0 491 81 673
254 116 111 188 222 239 371 24 72 53 215 53 266 l0 29 -188 0 -188 0 -16 -87
c-45 -235 -218 -428 -429 -478 -137 -32 -288 -13 -410 51 -75 40 -176 137
-221 215 -71 121 -104 304 -87 476 18 171 76 299 185 408 93 93 195 140 329
154 l60 6 3 173 2 172 -22 -2 c-13 0 -39 -3 -58 -5z"/>
<path d="M9220 4436 l0 -163 66 -6 c131 -12 246 -92 298 -208 26 -55 52 -199
42 -225 -4 -12 -57 -14 -303 -14 -328 0 -437 -11 -570 -55 -199 -67 -345 -217
-388 -396 -19 -82 -19 -239 0 -312 42 -161 171 -299 350 -374 109 -46 181 -53
555 -53 l350 0 0 159 0 160 -347 3 c-329 3 -350 4 -393 24 -53 24 -102 72
-127 123 -13 26 -18 59 -18 122 0 78 3 90 30 134 40 64 100 109 183 137 65 22
81 22 566 26 l499 3 -6 237 c-6 272 -17 335 -78 462 -32 68 -56 99 -122 165
-137 134 -270 187 -524 209 l-63 6 0 -164z"/>
<path d="M13010 4425 l0 -175 46 0 c144 0 303 -85 401 -214 95 -126 134 -255
134 -446 0 -219 -52 -360 -181 -491 -115 -117 -237 -169 -400 -169 -195 0
-367 93 -476 257 -43 65 -90 192 -100 270 l-6 53 -189 0 -189 0 0 -34 c0 -91
51 -279 105 -386 68 -136 213 -293 342 -369 302 -180 759 -175 1043 11 312
205 465 552 429 973 -30 348 -201 624 -480 774 -128 69 -233 98 -416 116 l-63
6 0 -176z"/>
<path d="M15013 4589 c-147 -17 -285 -78 -400 -176 l-62 -53 -201 0 -200 0 0
-420 0 -420 193 0 192 0 -3 132 c-5 232 29 342 143 454 110 108 224 149 395
142 88 -3 104 -7 172 -41 86 -42 180 -133 217 -211 50 -103 51 -110 51 -758
l0 -608 191 0 190 0 -3 668 c-4 652 -4 669 -26 747 -12 44 -41 118 -63 165
-57 116 -187 247 -301 303 -135 65 -327 96 -485 76z"/>
<path d="M6554 4442 c22 -65 104 -299 181 -520 l140 -402 198 0 c160 0 198 3
195 13 -2 8 -82 242 -178 520 l-175 507 -201 0 -202 0 42 -118z"/>
<path d="M7696 3608 c-181 -524 -331 -959 -334 -966 -3 -10 37 -12 193 -10
l197 3 329 940 c181 517 332 950 335 963 l6 22 -198 0 -199 0 -329 -952z"/>
<path d="M10302 3738 l3 -823 24 -60 c33 -81 115 -163 196 -196 57 -23 72 -24
333 -27 l272 -3 0 170 0 171 -190 0 -190 0 -32 29 -33 29 0 594 0 593 223 3
222 2 0 170 0 170 -415 0 -416 0 3 -822z"/>
<path d="M110 3495 l0 -865 190 0 190 0 0 865 0 865 -190 0 -190 0 0 -865z"/>
<path d="M11420 3290 l0 -660 190 0 190 0 0 660 0 660 -190 0 -190 0 0 -660z"/>
</g>
</svg>
