<?xml version="1.0" encoding="UTF-8"?>
<svg xmlns="http://www.w3.org/2000/svg" version="1.1" viewBox="0 0 286.96 293.7">
  <!-- Generator: Adobe Illustrator 29.1.0, SVG Export Plug-In . SVG Version: 2.1.0 Build 142)  -->
  <defs>
    <style>
      .st0 {
        stroke: #fff;
        stroke-width: .5px;
      }

      .st0, .st1 {
        fill: none;
        stroke-miterlimit: 10;
      }

      .st1 {
        stroke: #e1e0e0;
        stroke-width: .25px;
      }

      .st2 {
        display: none;
      }
    </style>
  </defs>
  <g id="Livello_2" class="st2">
    <rect x="-21.62" y="-11.12" width="344.25" height="319.5"/>
  </g>
  <g id="Livello_1">
    <g>
      <polyline class="st0" points="6.52 22.59 13.04 11.3 6.52 0"/>
      <polygon class="st0" points="32.61 0 19.56 0 13.04 11.3 19.56 22.59 32.61 22.59 39.13 11.3 32.61 0"/>
      <polygon class="st0" points="58.7 0 45.65 0 39.13 11.3 45.65 22.59 58.7 22.59 65.22 11.3 58.7 0"/>
      <polygon class="st0" points="84.78 0 71.74 0 65.22 11.3 71.74 22.59 84.78 22.59 91.3 11.3 84.78 0"/>
      <polygon class="st0" points="110.87 0 97.83 0 91.3 11.3 97.83 22.59 110.87 22.59 117.39 11.3 110.87 0"/>
      <polygon class="st0" points="136.96 0 123.91 0 117.39 11.3 123.91 22.59 136.96 22.59 143.48 11.3 136.96 0"/>
      <polygon class="st0" points="163.04 0 150 0 143.48 11.3 150 22.59 163.04 22.59 169.56 11.3 163.04 0"/>
      <polygon class="st0" points="189.13 0 176.09 0 169.56 11.3 176.09 22.59 189.13 22.59 195.65 11.3 189.13 0"/>
      <polygon class="st0" points="215.22 0 202.17 0 195.65 11.3 202.17 22.59 215.22 22.59 221.74 11.3 215.22 0"/>
      <polygon class="st0" points="241.3 0 228.26 0 221.74 11.3 228.26 22.59 241.3 22.59 247.83 11.3 241.3 0"/>
      <polygon class="st0" points="267.39 0 254.35 0 247.83 11.3 254.35 22.59 267.39 22.59 273.91 11.3 267.39 0"/>
      <polyline class="st0" points="280.43 0 273.91 11.3 280.43 22.59"/>
    </g>
    <g>
      <path class="st0" d="M6.52,0"/>
      <line class="st0" x1="19.56" y1="0" x2="32.61" y2="0"/>
      <line class="st0" x1="45.65" y1="0" x2="58.7" y2="0"/>
      <line class="st0" x1="71.74" y1="0" x2="84.78" y2="0"/>
      <line class="st0" x1="97.83" y1="0" x2="110.87" y2="0"/>
      <line class="st0" x1="123.91" y1="0" x2="136.96" y2="0"/>
      <line class="st0" x1="150" y1="0" x2="163.04" y2="0"/>
      <line class="st0" x1="176.09" y1="0" x2="189.13" y2="0"/>
      <line class="st0" x1="202.17" y1="0" x2="215.22" y2="0"/>
      <line class="st0" x1="228.26" y1="0" x2="241.3" y2="0"/>
      <line class="st0" x1="254.35" y1="0" x2="267.39" y2="0"/>
      <path class="st0" d="M280.43,0"/>
    </g>
    <g>
      <polyline class="st0" points="6.52 45.18 13.04 33.89 6.52 22.59"/>
      <polygon class="st0" points="32.61 22.59 19.56 22.59 13.04 33.89 19.56 45.18 32.61 45.18 39.13 33.89 32.61 22.59"/>
      <polygon class="st0" points="58.7 22.59 45.65 22.59 39.13 33.89 45.65 45.18 58.7 45.18 65.22 33.89 58.7 22.59"/>
      <polygon class="st0" points="84.78 22.59 71.74 22.59 65.22 33.89 71.74 45.18 84.78 45.18 91.3 33.89 84.78 22.59"/>
      <polygon class="st0" points="110.87 22.59 97.83 22.59 91.3 33.89 97.83 45.18 110.87 45.18 117.39 33.89 110.87 22.59"/>
      <polygon class="st0" points="136.96 22.59 123.91 22.59 117.39 33.89 123.91 45.18 136.96 45.18 143.48 33.89 136.96 22.59"/>
      <polygon class="st0" points="163.04 22.59 150 22.59 143.48 33.89 150 45.18 163.04 45.18 169.56 33.89 163.04 22.59"/>
      <polygon class="st0" points="189.13 22.59 176.09 22.59 169.56 33.89 176.09 45.18 189.13 45.18 195.65 33.89 189.13 22.59"/>
      <polygon class="st0" points="215.22 22.59 202.17 22.59 195.65 33.89 202.17 45.18 215.22 45.18 221.74 33.89 215.22 22.59"/>
      <polygon class="st0" points="241.3 22.59 228.26 22.59 221.74 33.89 228.26 45.18 241.3 45.18 247.83 33.89 241.3 22.59"/>
      <polygon class="st0" points="267.39 22.59 254.35 22.59 247.83 33.89 254.35 45.18 267.39 45.18 273.91 33.89 267.39 22.59"/>
      <polyline class="st0" points="280.43 22.59 273.91 33.89 280.43 45.18"/>
    </g>
    <g>
      <polyline class="st0" points="6.52 67.78 13.04 56.48 6.52 45.18"/>
      <polygon class="st0" points="32.61 45.18 19.56 45.18 13.04 56.48 19.56 67.78 32.61 67.78 39.13 56.48 32.61 45.18"/>
      <polygon class="st0" points="58.7 45.18 45.65 45.18 39.13 56.48 45.65 67.78 58.7 67.78 65.22 56.48 58.7 45.18"/>
      <polygon class="st0" points="84.78 45.18 71.74 45.18 65.22 56.48 71.74 67.78 84.78 67.78 91.3 56.48 84.78 45.18"/>
      <polygon class="st0" points="110.87 45.18 97.83 45.18 91.3 56.48 97.83 67.78 110.87 67.78 117.39 56.48 110.87 45.18"/>
      <polygon class="st0" points="136.96 45.18 123.91 45.18 117.39 56.48 123.91 67.78 136.96 67.78 143.48 56.48 136.96 45.18"/>
      <polygon class="st0" points="163.04 45.18 150 45.18 143.48 56.48 150 67.78 163.04 67.78 169.56 56.48 163.04 45.18"/>
      <polygon class="st0" points="189.13 45.18 176.09 45.18 169.56 56.48 176.09 67.78 189.13 67.78 195.65 56.48 189.13 45.18"/>
      <polygon class="st0" points="215.22 45.18 202.17 45.18 195.65 56.48 202.17 67.78 215.22 67.78 221.74 56.48 215.22 45.18"/>
      <polygon class="st0" points="241.3 45.18 228.26 45.18 221.74 56.48 228.26 67.78 241.3 67.78 247.83 56.48 241.3 45.18"/>
      <polygon class="st0" points="267.39 45.18 254.35 45.18 247.83 56.48 254.35 67.78 267.39 67.78 273.91 56.48 267.39 45.18"/>
      <polyline class="st0" points="280.43 45.18 273.91 56.48 280.43 67.78"/>
    </g>
    <g>
      <polyline class="st0" points="6.52 90.37 13.04 79.07 6.52 67.78"/>
      <polygon class="st0" points="32.61 67.78 19.56 67.78 13.04 79.07 19.56 90.37 32.61 90.37 39.13 79.07 32.61 67.78"/>
      <polygon class="st0" points="58.7 67.78 45.65 67.78 39.13 79.07 45.65 90.37 58.7 90.37 65.22 79.07 58.7 67.78"/>
      <polygon class="st0" points="84.78 67.78 71.74 67.78 65.22 79.07 71.74 90.37 84.78 90.37 91.3 79.07 84.78 67.78"/>
      <polygon class="st0" points="110.87 67.78 97.83 67.78 91.3 79.07 97.83 90.37 110.87 90.37 117.39 79.07 110.87 67.78"/>
      <polygon class="st0" points="136.96 67.78 123.91 67.78 117.39 79.07 123.91 90.37 136.96 90.37 143.48 79.07 136.96 67.78"/>
      <polygon class="st0" points="163.04 67.78 150 67.78 143.48 79.07 150 90.37 163.04 90.37 169.56 79.07 163.04 67.78"/>
      <polygon class="st0" points="189.13 67.78 176.09 67.78 169.56 79.07 176.09 90.37 189.13 90.37 195.65 79.07 189.13 67.78"/>
      <polygon class="st0" points="215.22 67.78 202.17 67.78 195.65 79.07 202.17 90.37 215.22 90.37 221.74 79.07 215.22 67.78"/>
      <polygon class="st0" points="241.3 67.78 228.26 67.78 221.74 79.07 228.26 90.37 241.3 90.37 247.83 79.07 241.3 67.78"/>
      <polygon class="st0" points="267.39 67.78 254.35 67.78 247.83 79.07 254.35 90.37 267.39 90.37 273.91 79.07 267.39 67.78"/>
      <polyline class="st0" points="280.43 67.78 273.91 79.07 280.43 90.37"/>
    </g>
    <g>
      <polyline class="st0" points="6.52 112.96 13.04 101.66 6.52 90.37"/>
      <polygon class="st0" points="32.61 90.37 19.56 90.37 13.04 101.66 19.56 112.96 32.61 112.96 39.13 101.66 32.61 90.37"/>
      <polygon class="st0" points="58.7 90.37 45.65 90.37 39.13 101.66 45.65 112.96 58.7 112.96 65.22 101.66 58.7 90.37"/>
      <polygon class="st0" points="84.78 90.37 71.74 90.37 65.22 101.66 71.74 112.96 84.78 112.96 91.3 101.66 84.78 90.37"/>
      <polygon class="st0" points="110.87 90.37 97.83 90.37 91.3 101.66 97.83 112.96 110.87 112.96 117.39 101.66 110.87 90.37"/>
      <polygon class="st0" points="136.96 90.37 123.91 90.37 117.39 101.66 123.91 112.96 136.96 112.96 143.48 101.66 136.96 90.37"/>
      <polygon class="st0" points="163.04 90.37 150 90.37 143.48 101.66 150 112.96 163.04 112.96 169.56 101.66 163.04 90.37"/>
      <polygon class="st0" points="189.13 90.37 176.09 90.37 169.56 101.66 176.09 112.96 189.13 112.96 195.65 101.66 189.13 90.37"/>
      <polygon class="st0" points="215.22 90.37 202.17 90.37 195.65 101.66 202.17 112.96 215.22 112.96 221.74 101.66 215.22 90.37"/>
      <polygon class="st0" points="241.3 90.37 228.26 90.37 221.74 101.66 228.26 112.96 241.3 112.96 247.83 101.66 241.3 90.37"/>
      <polygon class="st0" points="267.39 90.37 254.35 90.37 247.83 101.66 254.35 112.96 267.39 112.96 273.91 101.66 267.39 90.37"/>
      <polyline class="st0" points="280.43 90.37 273.91 101.66 280.43 112.96"/>
    </g>
    <g>
      <polyline class="st0" points="6.52 135.55 13.04 124.26 6.52 112.96"/>
      <polygon class="st0" points="32.61 112.96 19.56 112.96 13.04 124.26 19.56 135.55 32.61 135.55 39.13 124.26 32.61 112.96"/>
      <polygon class="st0" points="58.7 112.96 45.65 112.96 39.13 124.26 45.65 135.55 58.7 135.55 65.22 124.26 58.7 112.96"/>
      <polygon class="st0" points="84.78 112.96 71.74 112.96 65.22 124.26 71.74 135.55 84.78 135.55 91.3 124.26 84.78 112.96"/>
      <polygon class="st0" points="110.87 112.96 97.83 112.96 91.3 124.26 97.83 135.55 110.87 135.55 117.39 124.26 110.87 112.96"/>
      <polygon class="st0" points="136.96 112.96 123.91 112.96 117.39 124.26 123.91 135.55 136.96 135.55 143.48 124.26 136.96 112.96"/>
      <polygon class="st0" points="163.04 112.96 150 112.96 143.48 124.26 150 135.55 163.04 135.55 169.56 124.26 163.04 112.96"/>
      <polygon class="st0" points="189.13 112.96 176.09 112.96 169.56 124.26 176.09 135.55 189.13 135.55 195.65 124.26 189.13 112.96"/>
      <polygon class="st0" points="215.22 112.96 202.17 112.96 195.65 124.26 202.17 135.55 215.22 135.55 221.74 124.26 215.22 112.96"/>
      <polygon class="st0" points="241.3 112.96 228.26 112.96 221.74 124.26 228.26 135.55 241.3 135.55 247.83 124.26 241.3 112.96"/>
      <polygon class="st0" points="267.39 112.96 254.35 112.96 247.83 124.26 254.35 135.55 267.39 135.55 273.91 124.26 267.39 112.96"/>
      <polyline class="st0" points="280.43 112.96 273.91 124.26 280.43 135.55"/>
    </g>
    <g>
      <polyline class="st0" points="6.52 158.14 13.04 146.85 6.52 135.55"/>
      <polygon class="st0" points="32.61 135.55 19.56 135.55 13.04 146.85 19.56 158.14 32.61 158.14 39.13 146.85 32.61 135.55"/>
      <polygon class="st0" points="58.7 135.55 45.65 135.55 39.13 146.85 45.65 158.14 58.7 158.14 65.22 146.85 58.7 135.55"/>
      <polygon class="st0" points="84.78 135.55 71.74 135.55 65.22 146.85 71.74 158.14 84.78 158.14 91.3 146.85 84.78 135.55"/>
      <polygon class="st0" points="110.87 135.55 97.83 135.55 91.3 146.85 97.83 158.14 110.87 158.14 117.39 146.85 110.87 135.55"/>
      <polygon class="st0" points="136.96 135.55 123.91 135.55 117.39 146.85 123.91 158.14 136.96 158.14 143.48 146.85 136.96 135.55"/>
      <polygon class="st0" points="163.04 135.55 150 135.55 143.48 146.85 150 158.14 163.04 158.14 169.56 146.85 163.04 135.55"/>
      <polygon class="st0" points="189.13 135.55 176.09 135.55 169.56 146.85 176.09 158.14 189.13 158.14 195.65 146.85 189.13 135.55"/>
      <polygon class="st0" points="215.22 135.55 202.17 135.55 195.65 146.85 202.17 158.14 215.22 158.14 221.74 146.85 215.22 135.55"/>
      <polygon class="st0" points="241.3 135.55 228.26 135.55 221.74 146.85 228.26 158.14 241.3 158.14 247.83 146.85 241.3 135.55"/>
      <polygon class="st0" points="267.39 135.55 254.35 135.55 247.83 146.85 254.35 158.14 267.39 158.14 273.91 146.85 267.39 135.55"/>
      <polyline class="st0" points="280.43 135.55 273.91 146.85 280.43 158.14"/>
    </g>
    <g>
      <polyline class="st0" points="6.52 180.74 13.04 169.44 6.52 158.14"/>
      <polygon class="st0" points="32.61 158.14 19.56 158.14 13.04 169.44 19.56 180.74 32.61 180.74 39.13 169.44 32.61 158.14"/>
      <polygon class="st0" points="58.7 158.14 45.65 158.14 39.13 169.44 45.65 180.74 58.7 180.74 65.22 169.44 58.7 158.14"/>
      <polygon class="st0" points="84.78 158.14 71.74 158.14 65.22 169.44 71.74 180.74 84.78 180.74 91.3 169.44 84.78 158.14"/>
      <polygon class="st0" points="110.87 158.14 97.83 158.14 91.3 169.44 97.83 180.74 110.87 180.74 117.39 169.44 110.87 158.14"/>
      <polygon class="st0" points="136.96 158.14 123.91 158.14 117.39 169.44 123.91 180.74 136.96 180.74 143.48 169.44 136.96 158.14"/>
      <polygon class="st0" points="163.04 158.14 150 158.14 143.48 169.44 150 180.74 163.04 180.74 169.56 169.44 163.04 158.14"/>
      <polygon class="st0" points="189.13 158.14 176.09 158.14 169.56 169.44 176.09 180.74 189.13 180.74 195.65 169.44 189.13 158.14"/>
      <polygon class="st0" points="215.22 158.14 202.17 158.14 195.65 169.44 202.17 180.74 215.22 180.74 221.74 169.44 215.22 158.14"/>
      <polygon class="st0" points="241.3 158.14 228.26 158.14 221.74 169.44 228.26 180.74 241.3 180.74 247.83 169.44 241.3 158.14"/>
      <polygon class="st0" points="267.39 158.14 254.35 158.14 247.83 169.44 254.35 180.74 267.39 180.74 273.91 169.44 267.39 158.14"/>
      <polyline class="st0" points="280.43 158.14 273.91 169.44 280.43 180.74"/>
    </g>
    <g>
      <polyline class="st0" points="6.52 203.33 13.04 192.03 6.52 180.74"/>
      <polygon class="st0" points="32.61 180.74 19.56 180.74 13.04 192.03 19.56 203.33 32.61 203.33 39.13 192.03 32.61 180.74"/>
      <polygon class="st0" points="58.7 180.74 45.65 180.74 39.13 192.03 45.65 203.33 58.7 203.33 65.22 192.03 58.7 180.74"/>
      <polygon class="st0" points="84.78 180.74 71.74 180.74 65.22 192.03 71.74 203.33 84.78 203.33 91.3 192.03 84.78 180.74"/>
      <polygon class="st0" points="110.87 180.74 97.83 180.74 91.3 192.03 97.83 203.33 110.87 203.33 117.39 192.03 110.87 180.74"/>
      <polygon class="st0" points="136.96 180.74 123.91 180.74 117.39 192.03 123.91 203.33 136.96 203.33 143.48 192.03 136.96 180.74"/>
      <polygon class="st0" points="163.04 180.74 150 180.74 143.48 192.03 150 203.33 163.04 203.33 169.56 192.03 163.04 180.74"/>
      <polygon class="st0" points="189.13 180.74 176.09 180.74 169.56 192.03 176.09 203.33 189.13 203.33 195.65 192.03 189.13 180.74"/>
      <polygon class="st0" points="215.22 180.74 202.17 180.74 195.65 192.03 202.17 203.33 215.22 203.33 221.74 192.03 215.22 180.74"/>
      <polygon class="st0" points="241.3 180.74 228.26 180.74 221.74 192.03 228.26 203.33 241.3 203.33 247.83 192.03 241.3 180.74"/>
      <polygon class="st0" points="267.39 180.74 254.35 180.74 247.83 192.03 254.35 203.33 267.39 203.33 273.91 192.03 267.39 180.74"/>
      <polyline class="st0" points="280.43 180.74 273.91 192.03 280.43 203.33"/>
    </g>
    <g>
      <polyline class="st0" points="6.52 225.92 13.04 214.62 6.52 203.33"/>
      <polygon class="st0" points="32.61 203.33 19.56 203.33 13.04 214.62 19.56 225.92 32.61 225.92 39.13 214.62 32.61 203.33"/>
      <polygon class="st0" points="58.7 203.33 45.65 203.33 39.13 214.62 45.65 225.92 58.7 225.92 65.22 214.62 58.7 203.33"/>
      <polygon class="st0" points="84.78 203.33 71.74 203.33 65.22 214.62 71.74 225.92 84.78 225.92 91.3 214.62 84.78 203.33"/>
      <polygon class="st0" points="110.87 203.33 97.83 203.33 91.3 214.62 97.83 225.92 110.87 225.92 117.39 214.62 110.87 203.33"/>
      <polygon class="st0" points="136.96 203.33 123.91 203.33 117.39 214.62 123.91 225.92 136.96 225.92 143.48 214.62 136.96 203.33"/>
      <polygon class="st0" points="163.04 203.33 150 203.33 143.48 214.62 150 225.92 163.04 225.92 169.56 214.62 163.04 203.33"/>
      <polygon class="st0" points="189.13 203.33 176.09 203.33 169.56 214.62 176.09 225.92 189.13 225.92 195.65 214.62 189.13 203.33"/>
      <polygon class="st0" points="215.22 203.33 202.17 203.33 195.65 214.62 202.17 225.92 215.22 225.92 221.74 214.62 215.22 203.33"/>
      <polygon class="st0" points="241.3 203.33 228.26 203.33 221.74 214.62 228.26 225.92 241.3 225.92 247.83 214.62 241.3 203.33"/>
      <polygon class="st0" points="267.39 203.33 254.35 203.33 247.83 214.62 254.35 225.92 267.39 225.92 273.91 214.62 267.39 203.33"/>
      <polyline class="st0" points="280.43 203.33 273.91 214.62 280.43 225.92"/>
    </g>
    <g>
      <polyline class="st0" points="6.52 248.51 13.04 237.22 6.52 225.92"/>
      <polygon class="st0" points="32.61 225.92 19.56 225.92 13.04 237.22 19.56 248.51 32.61 248.51 39.13 237.22 32.61 225.92"/>
      <polygon class="st0" points="58.7 225.92 45.65 225.92 39.13 237.22 45.65 248.51 58.7 248.51 65.22 237.22 58.7 225.92"/>
      <polygon class="st0" points="84.78 225.92 71.74 225.92 65.22 237.22 71.74 248.51 84.78 248.51 91.3 237.22 84.78 225.92"/>
      <polygon class="st0" points="110.87 225.92 97.83 225.92 91.3 237.22 97.83 248.51 110.87 248.51 117.39 237.22 110.87 225.92"/>
      <polygon class="st0" points="136.96 225.92 123.91 225.92 117.39 237.22 123.91 248.51 136.96 248.51 143.48 237.22 136.96 225.92"/>
      <polygon class="st0" points="163.04 225.92 150 225.92 143.48 237.22 150 248.51 163.04 248.51 169.56 237.22 163.04 225.92"/>
      <polygon class="st0" points="189.13 225.92 176.09 225.92 169.56 237.22 176.09 248.51 189.13 248.51 195.65 237.22 189.13 225.92"/>
      <polygon class="st0" points="215.22 225.92 202.17 225.92 195.65 237.22 202.17 248.51 215.22 248.51 221.74 237.22 215.22 225.92"/>
      <polygon class="st0" points="241.3 225.92 228.26 225.92 221.74 237.22 228.26 248.51 241.3 248.51 247.83 237.22 241.3 225.92"/>
      <polygon class="st0" points="267.39 225.92 254.35 225.92 247.83 237.22 254.35 248.51 267.39 248.51 273.91 237.22 267.39 225.92"/>
      <polyline class="st0" points="280.43 225.92 273.91 237.22 280.43 248.51"/>
    </g>
    <g>
      <polyline class="st0" points="6.52 271.1 13.04 259.81 6.52 248.51"/>
      <polygon class="st0" points="32.61 248.51 19.56 248.51 13.04 259.81 19.56 271.1 32.61 271.1 39.13 259.81 32.61 248.51"/>
      <polygon class="st0" points="58.7 248.51 45.65 248.51 39.13 259.81 45.65 271.1 58.7 271.1 65.22 259.81 58.7 248.51"/>
      <polygon class="st0" points="84.78 248.51 71.74 248.51 65.22 259.81 71.74 271.1 84.78 271.1 91.3 259.81 84.78 248.51"/>
      <polygon class="st0" points="110.87 248.51 97.83 248.51 91.3 259.81 97.83 271.1 110.87 271.1 117.39 259.81 110.87 248.51"/>
      <polygon class="st0" points="136.96 248.51 123.91 248.51 117.39 259.81 123.91 271.1 136.96 271.1 143.48 259.81 136.96 248.51"/>
      <polygon class="st0" points="163.04 248.51 150 248.51 143.48 259.81 150 271.1 163.04 271.1 169.56 259.81 163.04 248.51"/>
      <polygon class="st0" points="189.13 248.51 176.09 248.51 169.56 259.81 176.09 271.1 189.13 271.1 195.65 259.81 189.13 248.51"/>
      <polygon class="st0" points="215.22 248.51 202.17 248.51 195.65 259.81 202.17 271.1 215.22 271.1 221.74 259.81 215.22 248.51"/>
      <polygon class="st0" points="241.3 248.51 228.26 248.51 221.74 259.81 228.26 271.1 241.3 271.1 247.83 259.81 241.3 248.51"/>
      <polygon class="st0" points="267.39 248.51 254.35 248.51 247.83 259.81 254.35 271.1 267.39 271.1 273.91 259.81 267.39 248.51"/>
      <polyline class="st0" points="280.43 248.51 273.91 259.81 280.43 271.1"/>
    </g>
    <g>
      <polyline class="st0" points="6.52 293.7 13.04 282.4 6.52 271.1"/>
      <polygon class="st0" points="32.61 271.1 19.56 271.1 13.04 282.4 19.56 293.7 32.61 293.7 39.13 282.4 32.61 271.1"/>
      <polygon class="st0" points="58.7 271.1 45.65 271.1 39.13 282.4 45.65 293.7 58.7 293.7 65.22 282.4 58.7 271.1"/>
      <polygon class="st0" points="84.78 271.1 71.74 271.1 65.22 282.4 71.74 293.7 84.78 293.7 91.3 282.4 84.78 271.1"/>
      <polygon class="st0" points="110.87 271.1 97.83 271.1 91.3 282.4 97.83 293.7 110.87 293.7 117.39 282.4 110.87 271.1"/>
      <polygon class="st0" points="136.96 271.1 123.91 271.1 117.39 282.4 123.91 293.7 136.96 293.7 143.48 282.4 136.96 271.1"/>
      <polygon class="st0" points="163.04 271.1 150 271.1 143.48 282.4 150 293.7 163.04 293.7 169.56 282.4 163.04 271.1"/>
      <polygon class="st0" points="189.13 271.1 176.09 271.1 169.56 282.4 176.09 293.7 189.13 293.7 195.65 282.4 189.13 271.1"/>
      <polygon class="st0" points="215.22 271.1 202.17 271.1 195.65 282.4 202.17 293.7 215.22 293.7 221.74 282.4 215.22 271.1"/>
      <polygon class="st0" points="241.3 271.1 228.26 271.1 221.74 282.4 228.26 293.7 241.3 293.7 247.83 282.4 241.3 271.1"/>
      <polygon class="st0" points="267.39 271.1 254.35 271.1 247.83 282.4 254.35 293.7 267.39 293.7 273.91 282.4 267.39 271.1"/>
      <polyline class="st0" points="280.43 271.1 273.91 282.4 280.43 293.7"/>
    </g>
    <polygon class="st0" points="19.57 11.3 6.52 11.3 0 22.59 6.52 33.89 19.57 33.89 26.09 22.59 19.57 11.3"/>
    <polygon class="st0" points="45.65 11.3 32.61 11.3 26.09 22.59 32.61 33.89 45.65 33.89 52.17 22.59 45.65 11.3"/>
    <polygon class="st0" points="71.74 11.3 58.7 11.3 52.17 22.59 58.7 33.89 71.74 33.89 78.26 22.59 71.74 11.3"/>
    <polygon class="st0" points="97.83 11.3 84.78 11.3 78.26 22.59 84.78 33.89 97.83 33.89 104.35 22.59 97.83 11.3"/>
    <polygon class="st0" points="123.91 11.3 110.87 11.3 104.35 22.59 110.87 33.89 123.91 33.89 130.44 22.59 123.91 11.3"/>
    <polygon class="st0" points="150 11.3 136.96 11.3 130.44 22.59 136.96 33.89 150 33.89 156.52 22.59 150 11.3"/>
    <polygon class="st0" points="176.09 11.3 163.04 11.3 156.52 22.59 163.04 33.89 176.09 33.89 182.61 22.59 176.09 11.3"/>
    <polygon class="st0" points="202.17 11.3 189.13 11.3 182.61 22.59 189.13 33.89 202.17 33.89 208.7 22.59 202.17 11.3"/>
    <polygon class="st0" points="228.26 11.3 215.22 11.3 208.7 22.59 215.22 33.89 228.26 33.89 234.78 22.59 228.26 11.3"/>
    <polygon class="st0" points="254.35 11.3 241.3 11.3 234.78 22.59 241.3 33.89 254.35 33.89 260.87 22.59 254.35 11.3"/>
    <polygon class="st0" points="280.44 11.3 267.39 11.3 260.87 22.59 267.39 33.89 280.44 33.89 286.96 22.59 280.44 11.3"/>
    <path class="st0" d="M286.96,22.59"/>
    <polyline class="st0" points="0 0 6.52 11.3 19.57 11.3 26.09 0"/>
    <polyline class="st0" points="26.09 0 32.61 11.3 45.65 11.3 52.17 0"/>
    <polyline class="st0" points="52.17 0 58.7 11.3 71.74 11.3 78.26 0"/>
    <polyline class="st0" points="78.26 0 84.78 11.3 97.83 11.3 104.35 0"/>
    <polyline class="st0" points="104.35 0 110.87 11.3 123.91 11.3 130.44 0"/>
    <polyline class="st0" points="130.44 0 136.96 11.3 150 11.3 156.52 0"/>
    <polyline class="st0" points="156.52 0 163.04 11.3 176.09 11.3 182.61 0"/>
    <polyline class="st0" points="182.61 0 189.13 11.3 202.17 11.3 208.7 0"/>
    <polyline class="st0" points="208.7 0 215.22 11.3 228.26 11.3 234.78 0"/>
    <polyline class="st0" points="234.78 0 241.3 11.3 254.35 11.3 260.87 0"/>
    <polyline class="st0" points="260.87 0 267.39 11.3 280.44 11.3 286.96 0"/>
    <path class="st0" d="M286.96,0"/>
    <polygon class="st0" points="19.57 33.89 6.52 33.89 0 45.18 6.52 56.48 19.57 56.48 26.09 45.18 19.57 33.89"/>
    <polygon class="st0" points="45.65 33.89 32.61 33.89 26.09 45.18 32.61 56.48 45.65 56.48 52.17 45.18 45.65 33.89"/>
    <polygon class="st0" points="71.74 33.89 58.7 33.89 52.17 45.18 58.7 56.48 71.74 56.48 78.26 45.18 71.74 33.89"/>
    <polygon class="st0" points="97.83 33.89 84.78 33.89 78.26 45.18 84.78 56.48 97.83 56.48 104.35 45.18 97.83 33.89"/>
    <polygon class="st0" points="123.91 33.89 110.87 33.89 104.35 45.18 110.87 56.48 123.91 56.48 130.44 45.18 123.91 33.89"/>
    <polygon class="st0" points="150 33.89 136.96 33.89 130.44 45.18 136.96 56.48 150 56.48 156.52 45.18 150 33.89"/>
    <polygon class="st0" points="176.09 33.89 163.04 33.89 156.52 45.18 163.04 56.48 176.09 56.48 182.61 45.18 176.09 33.89"/>
    <polygon class="st0" points="202.17 33.89 189.13 33.89 182.61 45.18 189.13 56.48 202.17 56.48 208.7 45.18 202.17 33.89"/>
    <polygon class="st0" points="228.26 33.89 215.22 33.89 208.7 45.18 215.22 56.48 228.26 56.48 234.78 45.18 228.26 33.89"/>
    <polygon class="st0" points="254.35 33.89 241.3 33.89 234.78 45.18 241.3 56.48 254.35 56.48 260.87 45.18 254.35 33.89"/>
    <polygon class="st0" points="280.44 33.89 267.39 33.89 260.87 45.18 267.39 56.48 280.44 56.48 286.96 45.18 280.44 33.89"/>
    <path class="st0" d="M286.96,45.18"/>
    <polygon class="st0" points="19.57 56.48 6.52 56.48 0 67.78 6.52 79.07 19.57 79.07 26.09 67.78 19.57 56.48"/>
    <polygon class="st0" points="45.65 56.48 32.61 56.48 26.09 67.78 32.61 79.07 45.65 79.07 52.17 67.78 45.65 56.48"/>
    <polygon class="st0" points="71.74 56.48 58.7 56.48 52.17 67.78 58.7 79.07 71.74 79.07 78.26 67.78 71.74 56.48"/>
    <polygon class="st0" points="97.83 56.48 84.78 56.48 78.26 67.78 84.78 79.07 97.83 79.07 104.35 67.78 97.83 56.48"/>
    <polygon class="st0" points="123.91 56.48 110.87 56.48 104.35 67.78 110.87 79.07 123.91 79.07 130.44 67.78 123.91 56.48"/>
    <polygon class="st0" points="150 56.48 136.96 56.48 130.44 67.78 136.96 79.07 150 79.07 156.52 67.78 150 56.48"/>
    <polygon class="st0" points="176.09 56.48 163.04 56.48 156.52 67.78 163.04 79.07 176.09 79.07 182.61 67.78 176.09 56.48"/>
    <polygon class="st0" points="202.17 56.48 189.13 56.48 182.61 67.78 189.13 79.07 202.17 79.07 208.7 67.78 202.17 56.48"/>
    <polygon class="st0" points="228.26 56.48 215.22 56.48 208.7 67.78 215.22 79.07 228.26 79.07 234.78 67.78 228.26 56.48"/>
    <polygon class="st0" points="254.35 56.48 241.3 56.48 234.78 67.78 241.3 79.07 254.35 79.07 260.87 67.78 254.35 56.48"/>
    <polygon class="st0" points="280.44 56.48 267.39 56.48 260.87 67.78 267.39 79.07 280.44 79.07 286.96 67.78 280.44 56.48"/>
    <path class="st0" d="M286.96,67.78"/>
    <polygon class="st0" points="19.57 79.07 6.52 79.07 0 90.37 6.52 101.66 19.57 101.66 26.09 90.37 19.57 79.07"/>
    <polygon class="st0" points="45.65 79.07 32.61 79.07 26.09 90.37 32.61 101.66 45.65 101.66 52.17 90.37 45.65 79.07"/>
    <polygon class="st0" points="71.74 79.07 58.7 79.07 52.17 90.37 58.7 101.66 71.74 101.66 78.26 90.37 71.74 79.07"/>
    <polygon class="st0" points="97.83 79.07 84.78 79.07 78.26 90.37 84.78 101.66 97.83 101.66 104.35 90.37 97.83 79.07"/>
    <polygon class="st0" points="123.91 79.07 110.87 79.07 104.35 90.37 110.87 101.66 123.91 101.66 130.44 90.37 123.91 79.07"/>
    <polygon class="st0" points="150 79.07 136.96 79.07 130.44 90.37 136.96 101.66 150 101.66 156.52 90.37 150 79.07"/>
    <polygon class="st0" points="176.09 79.07 163.04 79.07 156.52 90.37 163.04 101.66 176.09 101.66 182.61 90.37 176.09 79.07"/>
    <polygon class="st0" points="202.17 79.07 189.13 79.07 182.61 90.37 189.13 101.66 202.17 101.66 208.7 90.37 202.17 79.07"/>
    <polygon class="st0" points="228.26 79.07 215.22 79.07 208.7 90.37 215.22 101.66 228.26 101.66 234.78 90.37 228.26 79.07"/>
    <polygon class="st0" points="254.35 79.07 241.3 79.07 234.78 90.37 241.3 101.66 254.35 101.66 260.87 90.37 254.35 79.07"/>
    <polygon class="st0" points="280.44 79.07 267.39 79.07 260.87 90.37 267.39 101.66 280.44 101.66 286.96 90.37 280.44 79.07"/>
    <path class="st0" d="M286.96,90.37"/>
    <polygon class="st0" points="19.57 101.66 6.52 101.66 0 112.96 6.52 124.26 19.57 124.26 26.09 112.96 19.57 101.66"/>
    <polygon class="st0" points="45.65 101.66 32.61 101.66 26.09 112.96 32.61 124.26 45.65 124.26 52.17 112.96 45.65 101.66"/>
    <polygon class="st0" points="71.74 101.66 58.7 101.66 52.17 112.96 58.7 124.26 71.74 124.26 78.26 112.96 71.74 101.66"/>
    <polygon class="st0" points="97.83 101.66 84.78 101.66 78.26 112.96 84.78 124.26 97.83 124.26 104.35 112.96 97.83 101.66"/>
    <polygon class="st0" points="123.91 101.66 110.87 101.66 104.35 112.96 110.87 124.26 123.91 124.26 130.44 112.96 123.91 101.66"/>
    <polygon class="st0" points="150 101.66 136.96 101.66 130.44 112.96 136.96 124.26 150 124.26 156.52 112.96 150 101.66"/>
    <polygon class="st0" points="176.09 101.66 163.04 101.66 156.52 112.96 163.04 124.26 176.09 124.26 182.61 112.96 176.09 101.66"/>
    <polygon class="st0" points="202.17 101.66 189.13 101.66 182.61 112.96 189.13 124.26 202.17 124.26 208.7 112.96 202.17 101.66"/>
    <polygon class="st0" points="228.26 101.66 215.22 101.66 208.7 112.96 215.22 124.26 228.26 124.26 234.78 112.96 228.26 101.66"/>
    <polygon class="st0" points="254.35 101.66 241.3 101.66 234.78 112.96 241.3 124.26 254.35 124.26 260.87 112.96 254.35 101.66"/>
    <polygon class="st0" points="280.44 101.66 267.39 101.66 260.87 112.96 267.39 124.26 280.44 124.26 286.96 112.96 280.44 101.66"/>
    <path class="st0" d="M286.96,112.96"/>
    <polygon class="st0" points="19.57 124.26 6.52 124.26 0 135.55 6.52 146.85 19.57 146.85 26.09 135.55 19.57 124.26"/>
    <polygon class="st0" points="45.65 124.26 32.61 124.26 26.09 135.55 32.61 146.85 45.65 146.85 52.17 135.55 45.65 124.26"/>
    <polygon class="st0" points="71.74 124.26 58.7 124.26 52.17 135.55 58.7 146.85 71.74 146.85 78.26 135.55 71.74 124.26"/>
    <polygon class="st0" points="97.83 124.26 84.78 124.26 78.26 135.55 84.78 146.85 97.83 146.85 104.35 135.55 97.83 124.26"/>
    <polygon class="st0" points="123.91 124.26 110.87 124.26 104.35 135.55 110.87 146.85 123.91 146.85 130.44 135.55 123.91 124.26"/>
    <polygon class="st0" points="150 124.26 136.96 124.26 130.44 135.55 136.96 146.85 150 146.85 156.52 135.55 150 124.26"/>
    <polygon class="st0" points="176.09 124.26 163.04 124.26 156.52 135.55 163.04 146.85 176.09 146.85 182.61 135.55 176.09 124.26"/>
    <polygon class="st0" points="202.17 124.26 189.13 124.26 182.61 135.55 189.13 146.85 202.17 146.85 208.7 135.55 202.17 124.26"/>
    <polygon class="st0" points="228.26 124.26 215.22 124.26 208.7 135.55 215.22 146.85 228.26 146.85 234.78 135.55 228.26 124.26"/>
    <polygon class="st0" points="254.35 124.26 241.3 124.26 234.78 135.55 241.3 146.85 254.35 146.85 260.87 135.55 254.35 124.26"/>
    <polygon class="st0" points="280.44 124.26 267.39 124.26 260.87 135.55 267.39 146.85 280.44 146.85 286.96 135.55 280.44 124.26"/>
    <path class="st0" d="M286.96,135.55"/>
    <polygon class="st0" points="19.57 146.85 6.52 146.85 0 158.14 6.52 169.44 19.57 169.44 26.09 158.14 19.57 146.85"/>
    <polygon class="st0" points="45.65 146.85 32.61 146.85 26.09 158.14 32.61 169.44 45.65 169.44 52.17 158.14 45.65 146.85"/>
    <polygon class="st0" points="71.74 146.85 58.7 146.85 52.17 158.14 58.7 169.44 71.74 169.44 78.26 158.14 71.74 146.85"/>
    <polygon class="st0" points="97.83 146.85 84.78 146.85 78.26 158.14 84.78 169.44 97.83 169.44 104.35 158.14 97.83 146.85"/>
    <polygon class="st0" points="123.91 146.85 110.87 146.85 104.35 158.14 110.87 169.44 123.91 169.44 130.44 158.14 123.91 146.85"/>
    <polygon class="st0" points="150 146.85 136.96 146.85 130.44 158.14 136.96 169.44 150 169.44 156.52 158.14 150 146.85"/>
    <polygon class="st0" points="176.09 146.85 163.04 146.85 156.52 158.14 163.04 169.44 176.09 169.44 182.61 158.14 176.09 146.85"/>
    <polygon class="st0" points="202.17 146.85 189.13 146.85 182.61 158.14 189.13 169.44 202.17 169.44 208.7 158.14 202.17 146.85"/>
    <polygon class="st0" points="228.26 146.85 215.22 146.85 208.7 158.14 215.22 169.44 228.26 169.44 234.78 158.14 228.26 146.85"/>
    <polygon class="st0" points="254.35 146.85 241.3 146.85 234.78 158.14 241.3 169.44 254.35 169.44 260.87 158.14 254.35 146.85"/>
    <polygon class="st0" points="280.44 146.85 267.39 146.85 260.87 158.14 267.39 169.44 280.44 169.44 286.96 158.14 280.44 146.85"/>
    <path class="st0" d="M286.96,158.14"/>
    <polygon class="st0" points="19.57 169.44 6.52 169.44 0 180.74 6.52 192.03 19.57 192.03 26.09 180.74 19.57 169.44"/>
    <polygon class="st0" points="45.65 169.44 32.61 169.44 26.09 180.74 32.61 192.03 45.65 192.03 52.17 180.74 45.65 169.44"/>
    <polygon class="st0" points="71.74 169.44 58.7 169.44 52.17 180.74 58.7 192.03 71.74 192.03 78.26 180.74 71.74 169.44"/>
    <polygon class="st0" points="97.83 169.44 84.78 169.44 78.26 180.74 84.78 192.03 97.83 192.03 104.35 180.74 97.83 169.44"/>
    <polygon class="st0" points="123.91 169.44 110.87 169.44 104.35 180.74 110.87 192.03 123.91 192.03 130.44 180.74 123.91 169.44"/>
    <polygon class="st0" points="150 169.44 136.96 169.44 130.44 180.74 136.96 192.03 150 192.03 156.52 180.74 150 169.44"/>
    <polygon class="st0" points="176.09 169.44 163.04 169.44 156.52 180.74 163.04 192.03 176.09 192.03 182.61 180.74 176.09 169.44"/>
    <polygon class="st0" points="202.17 169.44 189.13 169.44 182.61 180.74 189.13 192.03 202.17 192.03 208.7 180.74 202.17 169.44"/>
    <polygon class="st0" points="228.26 169.44 215.22 169.44 208.7 180.74 215.22 192.03 228.26 192.03 234.78 180.74 228.26 169.44"/>
    <polygon class="st0" points="254.35 169.44 241.3 169.44 234.78 180.74 241.3 192.03 254.35 192.03 260.87 180.74 254.35 169.44"/>
    <polygon class="st0" points="280.44 169.44 267.39 169.44 260.87 180.74 267.39 192.03 280.44 192.03 286.96 180.74 280.44 169.44"/>
    <path class="st0" d="M286.96,180.74"/>
    <polygon class="st0" points="19.57 192.03 6.52 192.03 0 203.33 6.52 214.62 19.57 214.62 26.09 203.33 19.57 192.03"/>
    <polygon class="st0" points="45.65 192.03 32.61 192.03 26.09 203.33 32.61 214.62 45.65 214.62 52.17 203.33 45.65 192.03"/>
    <polygon class="st0" points="71.74 192.03 58.7 192.03 52.17 203.33 58.7 214.62 71.74 214.62 78.26 203.33 71.74 192.03"/>
    <polygon class="st0" points="97.83 192.03 84.78 192.03 78.26 203.33 84.78 214.62 97.83 214.62 104.35 203.33 97.83 192.03"/>
    <polygon class="st0" points="123.91 192.03 110.87 192.03 104.35 203.33 110.87 214.62 123.91 214.62 130.44 203.33 123.91 192.03"/>
    <polygon class="st0" points="150 192.03 136.96 192.03 130.44 203.33 136.96 214.62 150 214.62 156.52 203.33 150 192.03"/>
    <polygon class="st0" points="176.09 192.03 163.04 192.03 156.52 203.33 163.04 214.62 176.09 214.62 182.61 203.33 176.09 192.03"/>
    <polygon class="st0" points="202.17 192.03 189.13 192.03 182.61 203.33 189.13 214.62 202.17 214.62 208.7 203.33 202.17 192.03"/>
    <polygon class="st0" points="228.26 192.03 215.22 192.03 208.7 203.33 215.22 214.62 228.26 214.62 234.78 203.33 228.26 192.03"/>
    <polygon class="st0" points="254.35 192.03 241.3 192.03 234.78 203.33 241.3 214.62 254.35 214.62 260.87 203.33 254.35 192.03"/>
    <polygon class="st0" points="280.44 192.03 267.39 192.03 260.87 203.33 267.39 214.62 280.44 214.62 286.96 203.33 280.44 192.03"/>
    <path class="st0" d="M286.96,203.33"/>
    <polygon class="st0" points="19.57 214.62 6.52 214.62 0 225.92 6.52 237.22 19.57 237.22 26.09 225.92 19.57 214.62"/>
    <polygon class="st0" points="45.65 214.62 32.61 214.62 26.09 225.92 32.61 237.22 45.65 237.22 52.17 225.92 45.65 214.62"/>
    <polygon class="st0" points="71.74 214.62 58.7 214.62 52.17 225.92 58.7 237.22 71.74 237.22 78.26 225.92 71.74 214.62"/>
    <polygon class="st0" points="97.83 214.62 84.78 214.62 78.26 225.92 84.78 237.22 97.83 237.22 104.35 225.92 97.83 214.62"/>
    <polygon class="st0" points="123.91 214.62 110.87 214.62 104.35 225.92 110.87 237.22 123.91 237.22 130.44 225.92 123.91 214.62"/>
    <polygon class="st0" points="150 214.62 136.96 214.62 130.44 225.92 136.96 237.22 150 237.22 156.52 225.92 150 214.62"/>
    <polygon class="st0" points="176.09 214.62 163.04 214.62 156.52 225.92 163.04 237.22 176.09 237.22 182.61 225.92 176.09 214.62"/>
    <polygon class="st0" points="202.17 214.62 189.13 214.62 182.61 225.92 189.13 237.22 202.17 237.22 208.7 225.92 202.17 214.62"/>
    <polygon class="st0" points="228.26 214.62 215.22 214.62 208.7 225.92 215.22 237.22 228.26 237.22 234.78 225.92 228.26 214.62"/>
    <polygon class="st0" points="254.35 214.62 241.3 214.62 234.78 225.92 241.3 237.22 254.35 237.22 260.87 225.92 254.35 214.62"/>
    <polygon class="st0" points="280.44 214.62 267.39 214.62 260.87 225.92 267.39 237.22 280.44 237.22 286.96 225.92 280.44 214.62"/>
    <path class="st0" d="M286.96,225.92"/>
    <polygon class="st0" points="19.57 237.22 6.52 237.22 0 248.51 6.52 259.81 19.57 259.81 26.09 248.51 19.57 237.22"/>
    <polygon class="st0" points="45.65 237.22 32.61 237.22 26.09 248.51 32.61 259.81 45.65 259.81 52.17 248.51 45.65 237.22"/>
    <polygon class="st0" points="71.74 237.22 58.7 237.22 52.17 248.51 58.7 259.81 71.74 259.81 78.26 248.51 71.74 237.22"/>
    <polygon class="st0" points="97.83 237.22 84.78 237.22 78.26 248.51 84.78 259.81 97.83 259.81 104.35 248.51 97.83 237.22"/>
    <polygon class="st0" points="123.91 237.22 110.87 237.22 104.35 248.51 110.87 259.81 123.91 259.81 130.44 248.51 123.91 237.22"/>
    <polygon class="st0" points="150 237.22 136.96 237.22 130.44 248.51 136.96 259.81 150 259.81 156.52 248.51 150 237.22"/>
    <polygon class="st0" points="176.09 237.22 163.04 237.22 156.52 248.51 163.04 259.81 176.09 259.81 182.61 248.51 176.09 237.22"/>
    <polygon class="st0" points="202.17 237.22 189.13 237.22 182.61 248.51 189.13 259.81 202.17 259.81 208.7 248.51 202.17 237.22"/>
    <polygon class="st0" points="228.26 237.22 215.22 237.22 208.7 248.51 215.22 259.81 228.26 259.81 234.78 248.51 228.26 237.22"/>
    <polygon class="st0" points="254.35 237.22 241.3 237.22 234.78 248.51 241.3 259.81 254.35 259.81 260.87 248.51 254.35 237.22"/>
    <polygon class="st0" points="280.44 237.22 267.39 237.22 260.87 248.51 267.39 259.81 280.44 259.81 286.96 248.51 280.44 237.22"/>
    <path class="st0" d="M286.96,248.51"/>
    <polygon class="st0" points="19.57 259.81 6.52 259.81 0 271.1 6.52 282.4 19.57 282.4 26.09 271.1 19.57 259.81"/>
    <polygon class="st0" points="45.65 259.81 32.61 259.81 26.09 271.1 32.61 282.4 45.65 282.4 52.17 271.1 45.65 259.81"/>
    <polygon class="st0" points="71.74 259.81 58.7 259.81 52.17 271.1 58.7 282.4 71.74 282.4 78.26 271.1 71.74 259.81"/>
    <polygon class="st0" points="97.83 259.81 84.78 259.81 78.26 271.1 84.78 282.4 97.83 282.4 104.35 271.1 97.83 259.81"/>
    <polygon class="st0" points="123.91 259.81 110.87 259.81 104.35 271.1 110.87 282.4 123.91 282.4 130.44 271.1 123.91 259.81"/>
    <polygon class="st0" points="150 259.81 136.96 259.81 130.44 271.1 136.96 282.4 150 282.4 156.52 271.1 150 259.81"/>
    <polygon class="st0" points="176.09 259.81 163.04 259.81 156.52 271.1 163.04 282.4 176.09 282.4 182.61 271.1 176.09 259.81"/>
    <polygon class="st0" points="202.17 259.81 189.13 259.81 182.61 271.1 189.13 282.4 202.17 282.4 208.7 271.1 202.17 259.81"/>
    <polygon class="st0" points="228.26 259.81 215.22 259.81 208.7 271.1 215.22 282.4 228.26 282.4 234.78 271.1 228.26 259.81"/>
    <polygon class="st0" points="254.35 259.81 241.3 259.81 234.78 271.1 241.3 282.4 254.35 282.4 260.87 271.1 254.35 259.81"/>
    <polygon class="st0" points="280.44 259.81 267.39 259.81 260.87 271.1 267.39 282.4 280.44 282.4 286.96 271.1 280.44 259.81"/>
    <path class="st0" d="M286.96,271.1"/>
    <polyline class="st0" points="26.09 293.7 19.57 282.4 6.52 282.4 0 293.7"/>
    <polyline class="st0" points="52.17 293.7 45.65 282.4 32.61 282.4 26.09 293.7"/>
    <polyline class="st0" points="78.26 293.7 71.74 282.4 58.7 282.4 52.17 293.7"/>
    <polyline class="st0" points="104.35 293.7 97.83 282.4 84.78 282.4 78.26 293.7"/>
    <polyline class="st0" points="130.44 293.7 123.91 282.4 110.87 282.4 104.35 293.7"/>
    <polyline class="st0" points="156.52 293.7 150 282.4 136.96 282.4 130.44 293.7"/>
    <polyline class="st0" points="182.61 293.7 176.09 282.4 163.04 282.4 156.52 293.7"/>
    <polyline class="st0" points="208.7 293.7 202.17 282.4 189.13 282.4 182.61 293.7"/>
    <polyline class="st0" points="234.78 293.7 228.26 282.4 215.22 282.4 208.7 293.7"/>
    <polyline class="st0" points="260.87 293.7 254.35 282.4 241.3 282.4 234.78 293.7"/>
    <polyline class="st0" points="286.96 293.7 280.44 282.4 267.39 282.4 260.87 293.7"/>
    <path class="st0" d="M286.96,293.7"/>
    <path class="st0" d="M0,22.59"/>
    <path class="st0" d="M0,0"/>
    <path class="st0" d="M0,45.18"/>
    <path class="st0" d="M0,67.78"/>
    <path class="st0" d="M0,90.37"/>
    <path class="st0" d="M0,112.96"/>
    <path class="st0" d="M0,135.55"/>
    <path class="st0" d="M0,158.14"/>
    <path class="st0" d="M0,180.74"/>
    <path class="st0" d="M0,203.33"/>
    <path class="st0" d="M0,225.92"/>
    <path class="st0" d="M0,248.51"/>
    <path class="st0" d="M0,271.1"/>
    <path class="st0" d="M0,293.7"/>
    <polygon class="st0" points="48.52 -67.86 35.42 -67.86 28.88 -56.52 35.42 -45.18 48.52 -45.18 55.06 -56.52 48.52 -67.86"/>
    <polygon class="st1" points="84.02 -67.86 70.93 -67.86 64.38 -56.52 70.93 -45.18 84.02 -45.18 90.57 -56.52 84.02 -67.86"/>
  </g>
</svg>