<?xml version="1.0" encoding="UTF-8"?>
<svg xmlns="http://www.w3.org/2000/svg" width="134" height="42" viewBox="0 0 134 42" fill="none">
  <path d="M21.4904 6.35415C21.6704 6.0625 22.0551 5.87014 22.3654 5.87014C22.7687 5.87014 23.1224 6.09974 23.29 6.42861L37.3014 33.9488L27.2675 27.2347C25.3749 25.9689 22.7253 25.2491 19.995 25.2491C18.2699 25.2491 16.6504 25.5469 15.31 26.1116L6.722 29.7354L21.4904 6.35415ZM17.6122 3.04056L1.16212 29.0963C-0.0851288 31.0696 -0.327133 32.7326 0.429905 34.0419C1.02561 35.0657 2.14255 35.6552 3.49529 35.6552C4.35781 35.6552 5.32583 35.4256 6.43656 34.9602L16.7807 30.598C17.0413 30.4925 17.3329 30.3994 17.637 30.3249C17.9162 30.2505 18.2141 30.2008 18.5181 30.1574C18.5616 30.1574 18.605 30.145 18.6484 30.1388C18.6919 30.1388 18.7353 30.1264 18.7788 30.1202C18.9215 30.1015 19.0704 30.0953 19.2131 30.0829C19.4303 30.0705 19.6537 30.0581 19.8771 30.0581C21.205 30.0581 22.5453 30.3063 23.6437 30.7221C24.1277 30.9082 24.562 31.1192 24.9343 31.3674L37.9839 40.0982C39.3615 41.0165 40.4784 41.4447 41.5147 41.4447C42.551 41.4447 43.5376 40.9545 44.0837 40.1044C45.0827 38.5531 44.3195 36.6481 43.6617 35.3574L27.435 3.46872C26.3119 1.25966 24.5 0 22.4647 0C20.5721 0 18.847 1.07971 17.606 3.04056" fill="url(#paint0_linear_19_3923)"></path>
  <path d="M93.999 23.9909H85.1951C85.1951 25.7832 86.6729 26.6793 89.6285 26.6793C90.9868 26.6793 92.3451 26.5549 93.7035 26.2997V28.9633C92.5149 29.2185 90.9868 29.3429 89.1128 29.3429C84.2329 29.3429 81.793 27.0714 81.793 22.5346C81.793 17.9978 84.0254 16.0312 88.4966 16.0312C92.9677 16.0312 94.7914 18.6824 93.9927 23.9971M85.1888 21.5389H90.7982C90.9176 19.6283 90.0184 18.6699 88.1067 18.6699C86.3144 18.6699 85.3397 19.6283 85.1825 21.5389" fill="#1D1E1C"></path>
  <path d="M96.5449 29.3429V16.0312H99.1735L99.5949 17.7302C100.777 16.5976 102.022 16.0312 103.337 16.0312V18.7446C102.073 18.7446 100.941 19.3047 99.9407 20.4311V29.3491H96.5449V29.3429Z" fill="#1D1E1C"></path>
  <path d="M104.426 22.6838C104.426 18.1595 106.69 15.9004 111.217 15.9004C115.745 15.9004 118.009 18.1595 118.009 22.6838C118.009 27.2082 115.745 29.4548 111.217 29.4548C106.69 29.4548 104.445 27.1957 104.426 22.6838ZM111.217 26.8036C113.481 26.8036 114.613 25.4158 114.613 22.634C114.613 19.8522 113.481 18.564 111.217 18.564C108.954 18.564 107.822 19.9207 107.822 22.634C107.822 25.3474 108.954 26.8036 111.217 26.8036Z" fill="#1D1E1C"></path>
  <path d="M120.379 29.3429V16.0312H123.008L123.429 17.7302C125.058 16.5976 126.699 16.0312 128.353 16.0312C131.453 16.0312 133.006 17.6804 133.006 20.9912V29.3491H129.61V20.9539C129.61 19.4852 128.868 18.7446 127.391 18.7446C126.202 18.7446 125.001 19.3047 123.775 20.4311V29.3491H120.379V29.3429Z" fill="#1D1E1C"></path>
  <path d="M60.2851 13.7843C59.2663 11.5377 57.8388 11.2017 57.0465 11.2017C56.2793 11.2079 54.8455 11.5688 53.8707 13.8528L47.2363 29.3364L50.4938 29.3177L56.5937 14.9917C56.6566 14.8361 56.7257 14.6992 56.7823 14.5934C56.9333 14.4129 57.2477 14.4253 57.3735 14.556C57.4552 14.6867 57.5244 14.8236 57.5936 14.973L60.8133 22.0178H56.7383L58.1029 25.0174H62.1905L64.1588 29.3302H67.366L60.2913 13.7719L60.2851 13.7843Z" fill="#1D1E1C"></path>
  <path d="M72.2277 11.208H69.1777V29.3427H72.2277V11.208Z" fill="#1D1E1C"></path>
  <path d="M76.6738 22.5592C76.6738 22.3538 76.743 22.1609 76.8624 22.0053L81.4468 15.8691H77.3907L72.8881 21.8995C72.7497 22.0862 72.668 22.3103 72.668 22.5592C72.668 22.8081 72.756 23.0322 72.8881 23.2127L77.3907 29.243H81.4468L76.8624 23.1069C76.7492 22.9513 76.6738 22.7646 76.6738 22.553" fill="#1D1E1C"></path>
  <defs>
    <linearGradient id="paint0_linear_19_3923" x1="42.8923" y1="41.6246" x2="8.60839" y2="14.2038" gradientUnits="userSpaceOnUse">
      <stop stop-color="#003E72"></stop>
      <stop offset="0.23" stop-color="#003E72"></stop>
      <stop offset="0.57" stop-color="#1081C5"></stop>
      <stop offset="0.65" stop-color="#0F85C5"></stop>
      <stop offset="0.74" stop-color="#0D92C7"></stop>
      <stop offset="0.84" stop-color="#0BA8CA"></stop>
      <stop offset="0.93" stop-color="#07C6CE"></stop>
      <stop offset="1" stop-color="#04E2D2"></stop>
    </linearGradient>
  </defs>
</svg>
