<svg version="1.1" id="Layer_1" xmlns="http://www.w3.org/2000/svg" xmlns:xlink="http://www.w3.org/1999/xlink" x="0px" y="0px" viewBox="0 0 119.9 59.2" style="enable-background:new 0 0 119.9 59.2;" xml:space="preserve">
 <style type="text/css">
  .st0{fill:#FFE900;}
 </style>
 <g>
  <path class="st0" d="M118.4,33.1L0,45.6l1.4,13.6l118.4-12.4L118.4,33.1z">
  </path>
  <path d="M57.4,7.6c-2.7,0-5.3,0.8-7.6,2.3c-2.2,1.5-4,3.6-5,6.1c-1,2.5-1.3,5.2-0.8,7.9s1.8,5.1,3.7,7c1.9,1.9,4.3,3.2,7,3.7
		c2.7,0.5,5.4,0.3,7.9-0.8c2.5-1,4.6-2.8,6.1-5c1.5-2.2,2.3-4.9,2.3-7.6c0-1.8-0.4-3.6-1-5.2c-0.7-1.7-1.7-3.2-3-4.4
		c-1.3-1.3-2.8-2.3-4.4-3C61,8,59.2,7.6,57.4,7.6L57.4,7.6z M57.4,28.9c-1.5,0-3-0.4-4.2-1.3c-1.2-0.8-2.2-2-2.8-3.4
		c-0.6-1.4-0.7-2.9-0.4-4.4c0.3-1.5,1-2.8,2.1-3.9c1.1-1.1,2.4-1.8,3.9-2.1c1.5-0.3,3-0.1,4.4,0.4c1.4,0.6,2.6,1.5,3.4,2.8
		c0.8,1.2,1.3,2.7,1.3,4.2c0,2-0.8,3.9-2.2,5.4C61.3,28.1,59.4,28.9,57.4,28.9L57.4,28.9z">
  </path>
  <path d="M101.4,7.6c-2.7,0-5.3,0.8-7.6,2.3c-2.2,1.5-4,3.6-5,6.1c-1,2.5-1.3,5.2-0.8,7.9s1.8,5.1,3.7,7c1.9,1.9,4.3,3.2,7,3.7
		c2.7,0.5,5.4,0.3,7.9-0.8c2.5-1,4.6-2.8,6.1-5c1.5-2.2,2.3-4.9,2.3-7.6c0-1.8-0.3-3.6-1-5.2c-0.7-1.7-1.7-3.2-3-4.4
		c-1.3-1.3-2.8-2.3-4.4-3C105,8,103.2,7.6,101.4,7.6L101.4,7.6z M101.4,28.9c-1.5,0-3-0.4-4.2-1.3c-1.2-0.8-2.2-2-2.8-3.4
		c-0.6-1.4-0.7-2.9-0.4-4.4s1-2.8,2.1-3.9c1.1-1.1,2.4-1.8,3.9-2.1c1.5-0.3,3-0.1,4.4,0.4c1.4,0.6,2.6,1.5,3.4,2.8
		c0.8,1.2,1.3,2.7,1.3,4.2c0,2-0.8,3.9-2.2,5.4C105.3,28.1,103.4,28.9,101.4,28.9L101.4,28.9z">
  </path>
  <path d="M93.1,6.8V0.8H65.7v6.1h10.6v27.4h6.1V6.8H93.1z">
  </path>
  <path d="M20.5,14.4v6.1h8.4c-1.9,5.1-5.6,8.4-9.9,8.4c-1.9,0-3.7-0.5-5.4-1.4c-1.6-0.9-3.1-2.2-4.1-3.7c-1-1.6-1.7-3.3-1.9-5.2
		c-0.2-1.9,0.1-3.7,0.8-5.5c0.7-1.7,1.9-3.3,3.3-4.4c1.4-1.2,3.2-2,5-2.4c1.8-0.4,3.7-0.3,5.5,0.3c1.8,0.5,3.4,1.5,4.7,2.8l4.3-4.3
		c-2.4-2.4-5.6-4.1-8.9-4.8C19-0.3,15.5,0,12.3,1.3C9.1,2.6,6.4,4.9,4.5,7.8S1.5,14,1.5,17.5c0,2.3,0.4,4.6,1.3,6.7s2.2,4,3.8,5.7
		c1.6,1.6,3.5,2.9,5.7,3.8c2.1,0.9,4.4,1.3,6.7,1.4c5.9,0,11.3-3.8,14.5-9.9v9.2h6.1V14.4H20.5z">
  </path>
 </g>
</svg>