<?xml version="1.0" encoding="UTF-8"?>
<svg id="Layer_1" data-name="Layer 1" xmlns="http://www.w3.org/2000/svg" viewBox="0 0 122.23 31.38">
  <rect x="61.84" y=".31" width="2.91" height="4.7" fill="#ce221c"/>
  <path d="M46.45,10.07c3.44,0,6.16,1.32,8.15,3.97l2.3-1.43c-.68-1.14-1.5-2.07-2.47-2.8-.97-.73-2.15-1.33-3.54-1.78-1.39-.46-2.83-.69-4.33-.69-2.38,0-4.53.53-6.45,1.58-1.92,1.05-3.44,2.52-4.53,4.39-1.1,1.88-1.65,3.91-1.65,6.09,0,3.25,1.18,6.01,3.53,8.28,2.35,2.27,5.31,3.4,8.88,3.4,2.32,0,4.4-.45,6.22-1.34,1.82-.89,3.27-2.16,4.35-3.78l-2.3-1.51c-2.1,2.64-4.81,3.97-8.13,3.97-1.81,0-3.44-.4-4.9-1.2-1.46-.8-2.61-1.93-3.44-3.38-.84-1.45-1.25-3-1.25-4.64,0-2.53.91-4.68,2.73-6.45,1.82-1.77,4.1-2.65,6.85-2.65Z" fill="#ce221c"/>
  <rect x="61.84" y="7.91" width="2.91" height="22.58" fill="#ce221c"/>
  <rect x=".54" y=".31" width="2.91" height="4.7" fill="#666766"/>
  <rect x=".54" y="7.91" width="2.91" height="22.58" fill="#666766"/>
  <path d="M25.74,14.52c.21.87.32,2.61.32,5.21v10.77h2.91v-11.62c0-3.07-.31-5.33-.93-6.79s-1.59-2.61-2.9-3.47c-1.31-.86-2.81-1.29-4.49-1.29s-3.2.39-4.61,1.15c-1.41.77-2.7,1.93-3.86,3.48v-4.05h-2.91v22.58h2.91v-8.28c0-2.97.14-5.02.42-6.14.44-1.71,1.36-3.15,2.75-4.32,1.39-1.16,2.97-1.74,4.72-1.74,1.54,0,2.78.38,3.74,1.13.95.75,1.6,1.88,1.94,3.37Z" fill="#666766"/>
  <path d="M90.25,12.06c-1.14-1.58-2.45-2.76-3.96-3.55-1.5-.79-3.18-1.18-5.03-1.18-3.21,0-5.95,1.16-8.24,3.47-2.28,2.31-3.42,5.09-3.42,8.34s1.13,6.14,3.39,8.46c2.26,2.32,4.99,3.48,8.19,3.48,1.8,0,3.46-.37,4.97-1.12,1.52-.75,2.88-1.86,4.1-3.34v3.88h2.86V.31h-2.86v11.76ZM89.28,23.94c-.77,1.37-1.86,2.45-3.28,3.25-1.42.8-2.93,1.2-4.52,1.2s-3.05-.41-4.43-1.21c-1.37-.81-2.47-1.94-3.28-3.39-.82-1.45-1.23-2.97-1.23-4.56s.41-3.12,1.22-4.56c.81-1.44,1.9-2.55,3.26-3.35s2.86-1.19,4.48-1.19c2.52,0,4.63.88,6.36,2.63,1.72,1.76,2.58,3.94,2.58,6.55,0,1.72-.39,3.26-1.15,4.63Z" fill="#666766"/>
  <path d="M110.14,31.08c1.66,0,3.15-.25,4.47-.76,1.32-.5,2.5-1.24,3.55-2.21,1.05-.97,1.98-2.24,2.78-3.82l-2.45-1.29c-.89,1.47-1.71,2.54-2.47,3.2-.76.66-1.69,1.19-2.78,1.59-1.09.4-2.21.6-3.35.6-2.38,0-4.39-.84-6.01-2.52-1.62-1.68-2.46-3.83-2.51-6.45h20.32c-.03-3.09-.86-5.66-2.49-7.72-2.3-2.92-5.37-4.38-9.22-4.38s-6.72,1.43-8.95,4.28c-1.76,2.24-2.64,4.79-2.64,7.66,0,3.05,1.04,5.77,3.12,8.19,2.08,2.42,4.95,3.62,8.64,3.62ZM104.29,12.25c1.59-1.42,3.5-2.14,5.72-2.14,1.34,0,2.63.28,3.85.85s2.2,1.32,2.94,2.24c.74.93,1.31,2.17,1.69,3.72h-16.83c.59-2.08,1.47-3.63,2.64-4.67Z" fill="#666766"/>
</svg>