<?xml version="1.0" encoding="UTF-8"?>
<svg id="Layer_1" data-name="Layer 1" xmlns="http://www.w3.org/2000/svg" viewBox="0 0 122.23 56.22">
  <g>
    <rect x="62.1" y=".27" width="2.91" height="4.7" fill="#ce221c"/>
    <path d="M46.71,10.03c3.44,0,6.16,1.32,8.15,3.97l2.3-1.43c-.68-1.14-1.5-2.07-2.47-2.8-.97-.73-2.15-1.33-3.54-1.78-1.39-.46-2.83-.69-4.33-.69-2.38,0-4.53.53-6.45,1.58-1.92,1.05-3.44,2.52-4.53,4.39-1.1,1.88-1.65,3.91-1.65,6.09,0,3.25,1.18,6.01,3.53,8.28,2.35,2.27,5.31,3.4,8.88,3.4,2.32,0,4.4-.45,6.22-1.34,1.82-.89,3.27-2.16,4.35-3.78l-2.3-1.51c-2.1,2.64-4.81,3.97-8.13,3.97-1.81,0-3.44-.4-4.9-1.2-1.46-.8-2.61-1.93-3.44-3.38-.84-1.45-1.25-3-1.25-4.64,0-2.53.91-4.68,2.73-6.45,1.82-1.77,4.1-2.65,6.85-2.65Z" fill="#ce221c"/>
    <rect x="62.1" y="7.87" width="2.91" height="22.58" fill="#ce221c"/>
  </g>
  <rect x=".8" y=".27" width="2.91" height="4.7" fill="#666766"/>
  <rect x=".8" y="7.87" width="2.91" height="22.58" fill="#666766"/>
  <path d="M26,14.48c.21.87.32,2.61.32,5.21v10.77h2.91v-11.62c0-3.07-.31-5.33-.93-6.79s-1.59-2.61-2.9-3.47c-1.31-.86-2.81-1.29-4.49-1.29s-3.2.39-4.61,1.15c-1.41.77-2.7,1.93-3.86,3.48v-4.05h-2.91v22.58h2.91v-8.28c0-2.97.14-5.02.42-6.14.44-1.71,1.36-3.15,2.75-4.32,1.39-1.16,2.97-1.74,4.72-1.74,1.54,0,2.78.38,3.74,1.13.95.75,1.6,1.88,1.94,3.37Z" fill="#666766"/>
  <path d="M90.51,12.03c-1.14-1.58-2.45-2.76-3.96-3.55-1.5-.79-3.18-1.18-5.03-1.18-3.21,0-5.95,1.16-8.24,3.47-2.28,2.31-3.42,5.09-3.42,8.34s1.13,6.14,3.39,8.46c2.26,2.32,4.99,3.48,8.19,3.48,1.8,0,3.46-.37,4.97-1.12,1.52-.75,2.88-1.86,4.1-3.34v3.88h2.86V.27h-2.86v11.76ZM89.54,23.9c-.77,1.37-1.86,2.45-3.28,3.25-1.42.8-2.93,1.2-4.52,1.2s-3.05-.41-4.43-1.21c-1.37-.81-2.47-1.94-3.28-3.39-.82-1.45-1.23-2.97-1.23-4.56s.41-3.12,1.22-4.56c.81-1.44,1.9-2.55,3.26-3.35s2.86-1.19,4.48-1.19c2.52,0,4.63.88,6.36,2.63,1.72,1.76,2.58,3.94,2.58,6.55,0,1.72-.39,3.26-1.15,4.63Z" fill="#666766"/>
  <path d="M110.39,31.04c1.66,0,3.15-.25,4.47-.76,1.32-.5,2.5-1.24,3.55-2.21,1.05-.97,1.98-2.24,2.78-3.82l-2.45-1.29c-.89,1.47-1.71,2.54-2.47,3.2-.76.66-1.69,1.19-2.78,1.59-1.09.4-2.21.6-3.35.6-2.38,0-4.39-.84-6.01-2.52-1.62-1.68-2.46-3.83-2.51-6.45h20.32c-.03-3.09-.86-5.66-2.49-7.72-2.3-2.92-5.37-4.38-9.22-4.38s-6.72,1.43-8.95,4.28c-1.76,2.24-2.64,4.79-2.64,7.66,0,3.05,1.04,5.77,3.12,8.19,2.08,2.42,4.95,3.62,8.64,3.62ZM104.55,12.21c1.59-1.42,3.5-2.14,5.72-2.14,1.34,0,2.63.28,3.85.85s2.2,1.32,2.94,2.24c.74.93,1.31,2.17,1.69,3.72h-16.83c.59-2.08,1.47-3.63,2.64-4.67Z" fill="#666766"/>
  <g>
    <rect x="41.48" y="36.83" width="1.42" height="2.3" fill="#cdcccc"/>
    <rect x="92.73" y="36.83" width="1.42" height="2.3" fill="#cdcccc"/>
    <path d="M10.48,42.42c-1.13-1.43-2.63-2.15-4.52-2.15s-3.3.7-4.39,2.1c-.86,1.1-1.29,2.35-1.29,3.75,0,1.49.51,2.83,1.52,4.01,1.02,1.18,2.43,1.78,4.24,1.78.81,0,1.54-.12,2.19-.37.65-.25,1.22-.61,1.74-1.08.52-.47.97-1.1,1.36-1.87l-1.2-.63c-.44.72-.84,1.25-1.21,1.57-.37.32-.83.59-1.36.78-.53.2-1.08.29-1.64.29-1.17,0-2.15-.41-2.94-1.23-.79-.82-1.2-1.88-1.23-3.16h9.96c-.01-1.51-.42-2.77-1.22-3.78ZM1.89,44.97c.29-1.02.72-1.78,1.29-2.29.78-.7,1.71-1.05,2.8-1.05.66,0,1.29.14,1.88.42.6.28,1.08.64,1.44,1.1.36.45.64,1.06.83,1.82H1.89Z" fill="#cdcccc"/>
    <path d="M22.34,40.9c-.64-.42-1.37-.63-2.2-.63s-1.57.19-2.26.56c-.69.38-1.32.94-1.89,1.7v-1.98h-1.43v11.06h1.43v-4.06c0-1.46.06-2.46.2-3.01.21-.84.67-1.55,1.35-2.12.68-.57,1.45-.85,2.31-.85.75,0,1.36.19,1.83.55.47.37.78.92.95,1.65.11.43.16,1.28.16,2.55v5.28h1.42v-5.69c0-1.51-.15-2.61-.46-3.33-.3-.71-.78-1.28-1.42-1.7Z" fill="#cdcccc"/>
    <path d="M37.01,42.48c-.67-.79-1.36-1.35-2.07-1.69-.72-.34-1.49-.51-2.32-.51-1,0-1.94.26-2.84.77-.9.52-1.6,1.22-2.11,2.1-.51.88-.76,1.84-.76,2.86s.24,1.96.73,2.82c.49.85,1.18,1.53,2.08,2.04.9.5,1.85.76,2.87.76.87,0,1.69-.18,2.46-.54.77-.36,1.43-.88,1.97-1.56v.57c0,1.22-.14,2.1-.43,2.65-.29.55-.76,1-1.43,1.36-.67.36-1.49.54-2.46.54s-1.81-.18-2.47-.53c-.66-.35-1.21-.9-1.63-1.63h-1.55c.4.87.84,1.53,1.31,1.98.48.45,1.09.81,1.85,1.08.76.27,1.61.4,2.56.4,1.3,0,2.4-.27,3.33-.82.92-.55,1.57-1.33,1.94-2.35.27-.72.41-1.85.41-3.41v-8.82h-1.42v1.92ZM35.89,49.1c-.8.79-1.85,1.18-3.16,1.18s-2.35-.4-3.16-1.19c-.81-.79-1.22-1.8-1.22-3.01,0-.8.2-1.54.59-2.23.39-.69.93-1.23,1.63-1.62.69-.39,1.44-.58,2.25-.58s1.5.19,2.17.57c.67.38,1.19.9,1.56,1.55.37.65.55,1.4.55,2.23,0,1.28-.4,2.32-1.2,3.1Z" fill="#cdcccc"/>
    <rect x="41.48" y="40.56" width="1.42" height="11.06" fill="#cdcccc"/>
    <path d="M53.85,40.9c-.64-.42-1.37-.63-2.2-.63s-1.57.19-2.26.56c-.69.38-1.32.94-1.89,1.7v-1.98h-1.42v11.06h1.42v-4.06c0-1.46.07-2.46.2-3.01.22-.84.67-1.55,1.35-2.12.68-.57,1.45-.85,2.31-.85.75,0,1.36.19,1.83.55.47.37.79.92.95,1.65.1.43.16,1.28.16,2.55v5.28h1.42v-5.69c0-1.51-.15-2.61-.46-3.33-.31-.71-.78-1.28-1.42-1.7Z" fill="#cdcccc"/>
    <path d="M68.64,42.42c-1.13-1.43-2.63-2.15-4.52-2.15s-3.3.7-4.39,2.1c-.86,1.1-1.29,2.35-1.29,3.75,0,1.49.51,2.83,1.52,4.01,1.02,1.18,2.43,1.78,4.24,1.78.82,0,1.54-.12,2.19-.37.64-.25,1.23-.61,1.74-1.08.51-.47.97-1.1,1.36-1.87l-1.2-.63c-.44.72-.84,1.25-1.21,1.57-.38.32-.83.59-1.36.78-.53.2-1.08.29-1.64.29-1.17,0-2.15-.41-2.95-1.23-.79-.82-1.2-1.88-1.23-3.16h9.95c-.01-1.51-.42-2.77-1.22-3.78ZM60.05,44.97c.29-1.02.72-1.78,1.29-2.29.78-.7,1.71-1.05,2.8-1.05.66,0,1.29.14,1.88.42.6.28,1.08.64,1.44,1.1.37.45.64,1.06.83,1.82h-8.25Z" fill="#cdcccc"/>
    <path d="M82.39,42.42c-1.13-1.43-2.63-2.15-4.52-2.15s-3.3.7-4.39,2.1c-.87,1.1-1.29,2.35-1.29,3.75,0,1.49.51,2.83,1.53,4.01,1.02,1.18,2.43,1.78,4.23,1.78.81,0,1.54-.12,2.19-.37.64-.25,1.22-.61,1.74-1.08.52-.47.97-1.1,1.36-1.87l-1.2-.63c-.43.72-.84,1.25-1.21,1.57-.37.32-.83.59-1.36.78-.53.2-1.08.29-1.64.29-1.17,0-2.15-.41-2.94-1.23-.79-.82-1.2-1.88-1.23-3.16h9.96c-.01-1.51-.42-2.77-1.22-3.78ZM73.79,44.97c.29-1.02.73-1.78,1.29-2.29.78-.7,1.72-1.05,2.8-1.05.66,0,1.29.14,1.88.42.6.28,1.08.64,1.44,1.1.36.45.64,1.06.83,1.82h-8.25Z" fill="#cdcccc"/>
    <path d="M88.76,40.75c-.48.32-.94.79-1.37,1.43v-1.62h-1.46v11.06h1.46v-3.74c0-1.92.09-3.19.26-3.82.23-.82.57-1.42,1.01-1.81.44-.39.9-.58,1.37-.58.21,0,.46.06.76.19l.74-1.2c-.45-.25-.87-.38-1.26-.38-.52,0-1.02.16-1.51.47Z" fill="#cdcccc"/>
    <rect x="92.73" y="40.56" width="1.42" height="11.06" fill="#cdcccc"/>
    <path d="M105.1,40.9c-.64-.42-1.37-.63-2.2-.63s-1.57.19-2.26.56c-.69.38-1.32.94-1.89,1.7v-1.98h-1.42v11.06h1.42v-4.06c0-1.46.07-2.46.21-3.01.22-.84.66-1.55,1.35-2.12.68-.57,1.45-.85,2.31-.85.75,0,1.36.19,1.83.55.47.37.79.92.95,1.65.1.43.16,1.28.16,2.55v5.28h1.42v-5.69c0-1.51-.15-2.61-.46-3.33-.31-.71-.78-1.28-1.42-1.7Z" fill="#cdcccc"/>
    <path d="M119.77,40.56v1.92c-.66-.79-1.35-1.35-2.07-1.69-.72-.34-1.49-.51-2.32-.51-1,0-1.95.26-2.85.77-.9.52-1.6,1.22-2.11,2.1-.51.88-.76,1.84-.76,2.86s.24,1.96.73,2.82c.49.85,1.18,1.53,2.08,2.04.9.5,1.85.76,2.87.76.87,0,1.69-.18,2.46-.54.78-.36,1.43-.88,1.96-1.56v.57c0,1.22-.14,2.1-.43,2.65-.29.55-.76,1-1.43,1.36-.67.36-1.49.54-2.46.54s-1.81-.18-2.47-.53c-.67-.35-1.21-.9-1.63-1.63h-1.55c.4.87.84,1.53,1.31,1.98.47.45,1.09.81,1.84,1.08.76.27,1.61.4,2.56.4,1.3,0,2.4-.27,3.33-.82.92-.55,1.57-1.33,1.94-2.35.27-.72.41-1.85.41-3.41v-8.82h-1.42ZM118.65,49.1c-.8.79-1.85,1.18-3.16,1.18s-2.35-.4-3.16-1.19c-.81-.79-1.22-1.8-1.22-3.01,0-.8.2-1.54.59-2.23.39-.69.93-1.23,1.63-1.62.69-.39,1.44-.58,2.25-.58s1.49.19,2.17.57c.67.38,1.19.9,1.55,1.55.37.65.55,1.4.55,2.23,0,1.28-.4,2.32-1.2,3.1Z" fill="#cdcccc"/>
  </g>
</svg>